<svg width="180" height="77" viewBox="0 0 180 77" fill="none" xmlns="http://www.w3.org/2000/svg">
<mask id="mask0" mask-type="alpha" maskUnits="userSpaceOnUse" x="42" y="24" width="97" height="25">
<path d="M64.7298 41.5944C64.5229 42.1961 64.4239 42.8675 64.4239 43.5929C64.4239 46.0386 66.2328 48.1557 69.2464 48.1557C72.0112 48.1557 73.5929 46.9805 74.3127 46.1996H74.4091L74.2682 47.6905H81.2069L82.9168 39.5881C82.9866 39.2376 83.0425 38.9026 83.078 38.583L64.7298 41.5944ZM73.2489 36.8667C73.4482 35.9003 74.1743 35.1349 75.0946 35.1349C76.0327 35.1349 76.4161 35.9441 76.2498 36.7649L76.1305 37.3563L83.0552 36.6206C82.5309 33.0307 79.2253 31.4715 75.3853 31.4715C69.6653 31.4715 66.9322 34.3579 66.3927 36.9118L66.3178 37.2726H73.1689L73.2489 36.8667ZM75.12 42.2038C74.9004 43.3842 74.1108 44.3145 73.0001 44.3145C71.9541 44.3145 71.4793 43.4434 71.6786 42.4938C71.8474 41.6949 72.6675 40.896 74.1895 40.896H75.3942L75.12 42.2038ZM93.6274 36.8439C93.1463 37.4985 92.7579 38.443 92.4507 39.8681C91.7931 42.9477 92.5091 43.7531 93.4053 43.7531C94.6024 43.7531 95.6154 42.5985 96.113 39.9132C96.4316 38.202 96.3834 36.9714 95.9264 36.4663L103.335 35.2486C103.698 36.4418 103.757 37.9739 103.41 39.7225C102.324 45.2542 98.9895 48.1561 95.2663 48.1561C93.5805 48.1561 91.7399 47.7102 90.9744 45.8882H90.817L90.2166 47.6896H83.5127L85.5032 38.1788L93.6275 36.8439H93.6274ZM94.0286 33.2604C94.6113 32.7798 96.0483 31.6626 98.2469 31.6626C100.48 31.6626 102.196 32.6484 103.052 34.5077L85.8916 36.3207L88.1982 25.3049H95.5888L93.9245 33.2604H94.0286ZM50.4905 43.9382L51.1391 40.7748H42.7508C42.1694 46.1313 46.3128 48.2781 51.6279 48.2781C56.7284 48.2781 62.1222 46.5501 63.3231 41.8263L50.4905 43.9382ZM50.2125 38.5895C47.2382 37.6347 44.9939 35.8565 44.9939 32.4882C44.9939 27.5595 49.8405 24.7376 56.326 24.7221C61.8201 24.7015 65.457 27.026 64.8159 31.6622H56.9975C57.273 30.3956 56.5558 29.6766 55.2178 29.6766C54.1781 29.6766 53.3733 30.2229 53.2451 30.8633C53.0636 31.7808 53.6425 32.3593 55.0439 32.7446C56.2257 33.0719 57.0331 33.2897 58.1946 33.626C61.5014 34.5872 63.0832 36.5909 63.4919 38.6887L53.6666 39.7169L50.2125 38.5895ZM117.45 31.9372C115.818 31.9372 114.51 32.892 113.628 34.1213H113.493L113.722 32.1253H106.868L106.45 34.1509L110.233 33.7502L110.15 34.1329L106.311 34.7656L103.608 47.6897H110.999C110.999 47.6897 111.762 43.9761 112.226 41.801C112.971 38.331 114.846 37.5463 116.096 37.5463C117.15 37.5463 117.809 38.0295 117.973 38.1648L119.183 32.3792C119.066 32.3122 118.435 31.9372 117.45 31.9372ZM129.809 37.9862L129.885 37.6241C130.11 36.4206 129.541 35.5096 128.298 35.5096C127.153 35.5096 126.177 36.3433 125.833 37.9862H129.809ZM135.299 42.6958C134.155 45.9919 131.01 48.1554 125.85 48.1554C121.554 48.1554 117.413 45.6195 118.435 39.8108C119.29 34.9207 123.716 31.6633 128.777 31.6633C134.445 31.6633 136.92 35.6139 136.001 40.2192L135.78 41.2745H125.134C125.099 41.3957 124.965 41.8982 124.965 42.4497C124.965 43.831 125.687 44.3142 126.606 44.3142C127.556 44.3142 128.372 43.7756 128.821 42.6958H135.299Z" fill="#E50000"/>
<path d="M136.505 46.3521H136.702C136.928 46.3521 137.12 46.2684 137.12 46.0544C137.12 45.9024 137.008 45.749 136.702 45.749C136.613 45.749 136.552 45.7563 136.505 45.7645V46.3521ZM136.505 47.3133H136.232V45.5777C136.376 45.5558 136.51 45.5364 136.716 45.5364C136.975 45.5364 137.145 45.5906 137.249 45.6679C137.349 45.7426 137.404 45.8611 137.404 46.0261C137.404 46.2542 137.254 46.3933 137.07 46.4487V46.463C137.22 46.4901 137.323 46.6279 137.357 46.8843C137.398 47.1549 137.439 47.258 137.466 47.3134H137.179C137.137 47.258 137.097 47.0982 137.064 46.8701C137.023 46.6485 136.913 46.566 136.696 46.566H136.505V47.3134V47.3133ZM136.791 45.0932C136.115 45.0932 135.564 45.6808 135.564 46.4062C135.564 47.1471 136.115 47.7296 136.797 47.7296C137.479 47.7357 138.023 47.1471 138.023 46.4139C138.023 45.6808 137.479 45.0932 136.797 45.0932H136.791H136.791ZM136.797 44.8509C137.636 44.8509 138.304 45.5429 138.304 46.4062C138.304 47.285 137.636 47.9718 136.79 47.9718C135.953 47.9718 135.271 47.285 135.271 46.4062C135.271 45.5429 135.953 44.8509 136.79 44.8509H136.797H136.797Z" fill="#E50000"/>
</mask>
<g mask="url(#mask0)">
<rect y="7" width="180" height="62" fill="#4D7DB1"/>
</g>
</svg>
