<svg width="32" height="32" viewBox="0 0 32 32" fill="none" xmlns="http://www.w3.org/2000/svg">
<circle cx="16" cy="16" r="16" fill="#E2E2E2"/>
<g clip-path="url(#clip0)">
<path opacity="0.3" d="M18.167 16.0001L22.9144 11.2525C23.0284 11.1385 23.0284 10.9538 22.9144 10.8398L21.1605 9.08551C21.1058 9.03079 21.0314 9 20.9542 9C20.8768 9 20.8026 9.03079 20.7478 9.08551L16.0001 13.8332L11.2524 9.08551C11.143 8.97607 10.9492 8.97607 10.8398 9.08551L9.08572 10.8398C8.97175 10.9538 8.97175 11.1385 9.08572 11.2525L13.8333 16.0001L9.08572 20.7476C8.97175 20.8616 8.97175 21.0463 9.08572 21.1603L10.8398 22.9145C10.8945 22.9692 10.9688 23 11.0461 23C11.1234 23 11.1977 22.9692 11.2524 22.9145L16.0001 18.1668L20.7478 22.9145C20.8026 22.9692 20.8768 23 20.9542 23C21.0314 23 21.1058 22.9692 21.1605 22.9145L22.9145 21.1603C23.0285 21.0463 23.0285 20.8615 22.9145 20.7476L18.167 16.0001Z" fill="black"/>
</g>
<defs>
<clipPath id="clip0">
<rect x="9" y="9" width="14" height="14" fill="white"/>
</clipPath>
</defs>
</svg>
