<svg width="94" height="94" viewBox="0 0 94 94" fill="none" xmlns="http://www.w3.org/2000/svg">
<g clip-path="url(#clip0)">
<path d="M70.2441 31.9481C70.2088 31.9479 70.1734 31.9477 70.1381 31.9477C64.2569 31.9385 58.6846 29.406 54.8191 24.9737C49.0605 18.3709 40.5722 14.2111 31.1133 14.2531C13.9451 14.3293 -0.219391 28.7535 0.00257374 45.9205C0.223437 62.9921 14.131 76.7633 31.2552 76.7633C36.0916 76.7633 40.671 75.6641 44.758 73.7024C48.2819 72.011 52.4808 72.4569 55.5841 74.8336C59.598 77.9078 64.6151 79.7379 70.0597 79.7471C83.165 79.7689 93.9234 69.095 93.9996 55.9899C94.0764 42.7619 83.4536 32.0259 70.2441 31.9481Z" fill="#ECF8FF"/>
<path opacity="0.1" d="M83.7188 17.4253V69.6118C83.7188 71.132 82.485 72.3657 80.9648 72.3657H13.0352C11.515 72.3657 10.2812 71.132 10.2812 69.6118V17.4253C10.2812 15.9051 11.515 14.6714 13.0352 14.6714H80.9648C82.485 14.6714 83.7188 15.9051 83.7188 17.4253Z" fill="#536587"/>
<path d="M83.7188 21.2808V73.4673C83.7188 74.9874 82.485 76.2212 80.9648 76.2212H13.0352C11.515 76.2212 10.2812 74.9874 10.2812 73.4673V21.2808C10.2812 19.7606 11.515 18.5269 13.0352 18.5269H80.9648C82.485 18.5269 83.7188 19.7606 83.7188 21.2808Z" fill="white"/>
<path d="M83.7188 27.3709V21.2809C83.7188 19.76 82.4857 18.527 80.9648 18.527H13.0352C11.5143 18.527 10.2812 19.76 10.2812 21.2809V27.3709H83.7188Z" fill="#EF6F0E"/>
<path opacity="0.5" d="M32.2138 51.4645H16.9891C16.6115 51.4645 16.3054 51.1584 16.3054 50.7808V38.5204C16.3054 38.1427 16.6115 37.8367 16.9891 37.8367H32.2138C32.5915 37.8367 32.8975 38.1427 32.8975 38.5204V50.7808C32.8975 51.1582 32.5915 51.4645 32.2138 51.4645Z" fill="#FFD5B8"/>
<path d="M30.7139 58.1285H18.4891C17.9697 58.1285 17.5486 57.7073 17.5486 57.1879C17.5486 56.6685 17.9696 56.2474 18.4891 56.2474H30.7139C31.2333 56.2474 31.6545 56.6685 31.6545 57.1879C31.6545 57.7073 31.2333 58.1285 30.7139 58.1285Z" fill="#536587"/>
<path opacity="0.5" d="M54.6122 51.4645H39.3876C39.0099 51.4645 38.7039 51.1584 38.7039 50.7808V38.5204C38.7039 38.1427 39.0099 37.8367 39.3876 37.8367H54.6122C54.9899 37.8367 55.2959 38.1427 55.2959 38.5204V50.7808C55.2959 51.1582 54.9899 51.4645 54.6122 51.4645Z" fill="#FFD5B8"/>
<path d="M53.1124 58.1285H40.8876C40.3682 58.1285 39.947 57.7073 39.947 57.1879C39.947 56.6685 40.368 56.2474 40.8876 56.2474H53.1124C53.6317 56.2474 54.0529 56.6685 54.0529 57.1879C54.0529 57.7073 53.6317 58.1285 53.1124 58.1285Z" fill="#536587"/>
<path opacity="0.5" d="M77.0107 51.4645H61.786C61.4083 51.4645 61.1023 51.1584 61.1023 50.7808V38.5204C61.1023 38.1427 61.4083 37.8367 61.786 37.8367H77.0107C77.3884 37.8367 77.6944 38.1427 77.6944 38.5204V50.7808C77.6944 51.1582 77.3884 51.4645 77.0107 51.4645Z" fill="#FFD5B8"/>
<path d="M75.5108 58.1285H63.286C62.7666 58.1285 62.3455 57.7073 62.3455 57.1879C62.3455 56.6685 62.7664 56.2474 63.286 56.2474H75.5108C76.0302 56.2474 76.4513 56.6685 76.4513 57.1879C76.4513 57.7073 76.0302 58.1285 75.5108 58.1285Z" fill="#536587"/>
<path d="M77.0109 36.9185H61.7862C60.9029 36.9185 60.1843 37.637 60.1843 38.5203V50.7805C60.1843 51.6638 60.9029 52.3824 61.7862 52.3824H77.0109C77.8941 52.3824 78.6127 51.6638 78.6127 50.7805V38.5203C78.6125 37.637 77.894 36.9185 77.0109 36.9185ZM76.7766 43.7323H67.6849V38.7544H76.7766V43.7323ZM62.0203 38.7544H65.8489V50.5464H62.0203V38.7544ZM67.685 50.5464V45.5685H76.7768V50.5464H67.685Z" fill="#EF6F0E"/>
<path d="M72.2061 59.7359H66.5907C66.0713 59.7359 65.6501 60.1569 65.6501 60.6765C65.6501 61.1958 66.0711 61.617 66.5907 61.617H72.2061C72.7255 61.617 73.1466 61.1958 73.1466 60.6765C73.1465 60.1569 72.7255 59.7359 72.2061 59.7359Z" fill="#D0E9F8"/>
<path d="M28.8242 70.0651H20.3789C20.0747 70.0651 19.8281 69.8185 19.8281 69.5143V66.4543C19.8281 66.1501 20.0747 65.9036 20.3789 65.9036H28.8242C29.1284 65.9036 29.375 66.1501 29.375 66.4543V69.5143C29.375 69.8185 29.1284 70.0651 28.8242 70.0651Z" fill="#D0E9F8"/>
<path d="M51.4167 70.0651H42.9714C42.6672 70.0651 42.4207 69.8185 42.4207 69.5143V66.4543C42.4207 66.1501 42.6672 65.9036 42.9714 65.9036H51.4167C51.721 65.9036 51.9675 66.1501 51.9675 66.4543V69.5143C51.9675 69.8185 51.721 70.0651 51.4167 70.0651Z" fill="#D0E9F8"/>
<path d="M74.0093 70.0651H65.564C65.2598 70.0651 65.0132 69.8185 65.0132 69.5143V66.4543C65.0132 66.1501 65.2598 65.9036 65.564 65.9036H74.0093C74.3135 65.9036 74.5601 66.1501 74.5601 66.4543V69.5143C74.5601 69.8185 74.3135 70.0651 74.0093 70.0651Z" fill="#D0E9F8"/>
<path d="M16.355 22.9355V22.9623C16.355 23.4694 16.7659 23.8803 17.2729 23.8803C17.78 23.8803 18.1909 23.4694 18.1909 22.9623V22.9355C18.1909 22.4284 17.78 22.0175 17.2729 22.0175C16.7659 22.0175 16.355 22.4284 16.355 22.9355Z" fill="white"/>
<path d="M19.9028 22.9355V22.9623C19.9028 23.4694 20.3137 23.8803 20.8208 23.8803C21.3279 23.8803 21.7388 23.4694 21.7388 22.9623V22.9355C21.7388 22.4284 21.3279 22.0175 20.8208 22.0175C20.3137 22.0175 19.9028 22.4284 19.9028 22.9355Z" fill="white"/>
<path d="M23.4507 22.9355V22.9623C23.4507 23.4694 23.8616 23.8803 24.3687 23.8803C24.8757 23.8803 25.2866 23.4694 25.2866 22.9623V22.9355C25.2866 22.4284 24.8757 22.0175 24.3687 22.0175C23.8616 22.0175 23.4507 22.4284 23.4507 22.9355Z" fill="white"/>
<path d="M80.9648 17.6089H13.0352C11.0105 17.6089 9.36328 19.2561 9.36328 21.2808V27.3707C9.36328 27.8778 9.77416 28.2887 10.2812 28.2887H77.4154C77.9225 28.2887 78.3334 27.8778 78.3334 27.3707C78.3334 26.8637 77.9225 26.4528 77.4154 26.4528H11.1992V21.2808C11.1992 20.2684 12.0228 19.4448 13.0352 19.4448H80.9648C81.9772 19.4448 82.8008 20.2684 82.8008 21.2808V73.4669C82.8008 74.4793 81.9772 75.3029 80.9648 75.3029H65.017C64.8257 74.9182 64.4969 74.6133 64.0729 74.4559L48.6138 68.7113C47.9708 68.4719 47.2702 68.6252 46.7854 69.1102C46.3003 69.5953 46.1474 70.2959 46.3864 70.9387L48.0083 75.3029H13.0352C12.0228 75.3029 11.1992 74.4793 11.1992 73.4669V32.4271C11.1992 31.92 10.7883 31.5091 10.2812 31.5091C9.77416 31.5091 9.36328 31.92 9.36328 32.4271V73.4669C9.36328 75.4916 11.0105 77.1388 13.0352 77.1388H48.6905L52.1313 86.398C52.3692 87.0382 52.94 87.4689 53.6211 87.5216C53.6678 87.5253 53.7142 87.5269 53.7603 87.5269C54.3871 87.5269 54.9555 87.1963 55.2663 86.6414L58.5174 80.8421L64.3169 77.591C64.526 77.4739 64.701 77.3185 64.8407 77.1388H80.9648C82.9895 77.1388 84.6367 75.4916 84.6367 73.4669V21.2808C84.6367 19.2561 82.9895 17.6089 80.9648 17.6089ZM57.5937 79.2549C57.3152 79.4111 57.0857 79.6408 56.93 79.9186L53.7742 85.5485L48.186 70.5107L63.2238 76.0989L57.5937 79.2549Z" fill="#536587"/>
<path d="M44.9939 86.0405C44.4868 86.0405 44.0759 85.6296 44.0759 85.1225C44.0759 84.5135 43.5806 84.018 42.9714 84.018C42.4643 84.018 42.0535 83.6071 42.0535 83.1C42.0535 82.593 42.4643 82.1821 42.9714 82.1821C43.5804 82.1821 44.0759 81.6866 44.0759 81.0774C44.0759 80.5703 44.4868 80.1594 44.9939 80.1594C45.501 80.1594 45.9119 80.5703 45.9119 81.0774C45.9119 81.6864 46.4072 82.1821 47.0164 82.1821C47.5235 82.1821 47.9343 82.593 47.9343 83.1C47.9343 83.6071 47.5235 84.018 47.0164 84.018C46.4074 84.018 45.9119 84.5133 45.9119 85.1225C45.9119 85.6296 45.501 86.0405 44.9939 86.0405Z" fill="#EF6F0E"/>
<path d="M32.214 36.9185H16.9893C16.106 36.9185 15.3875 37.637 15.3875 38.5203V50.7805C15.3875 51.6638 16.106 52.3824 16.9893 52.3824H32.214C33.0973 52.3824 33.8159 51.6638 33.8159 50.7805V38.5203C33.8157 37.637 33.0971 36.9185 32.214 36.9185ZM31.9797 38.7544V41.8055H17.2234V38.7544H31.9797ZM17.2234 43.6415H27.2628V50.5462H17.2234V43.6415ZM29.0988 50.5464V43.6417H31.9797V50.5464H29.0988Z" fill="#EF6F0E"/>
<path d="M27.4092 59.7359H21.7938C21.2744 59.7359 20.8533 60.1569 20.8533 60.6765C20.8533 61.1958 21.2743 61.617 21.7938 61.617H27.4092C27.9286 61.617 28.3498 61.1958 28.3498 60.6765C28.3496 60.1569 27.9286 59.7359 27.4092 59.7359Z" fill="#D0E9F8"/>
<path d="M45.0883 11.9343L43.0697 9.91571C42.7115 9.55715 42.1299 9.55715 41.7717 9.91571L39.7531 11.9343C39.5809 12.1065 39.4841 12.3399 39.4841 12.5833C39.4841 12.8268 39.5809 13.0603 39.7531 13.2325L41.7717 15.2509C41.9511 15.4301 42.1859 15.5197 42.4207 15.5197C42.6555 15.5197 42.8905 15.4301 43.0697 15.2509L45.0883 13.2325C45.2605 13.0603 45.3573 12.8268 45.3573 12.5833C45.3573 12.3399 45.2605 12.1065 45.0883 11.9343ZM42.4205 13.3037L41.7001 12.5833L42.4205 11.8629L43.141 12.5833L42.4205 13.3037Z" fill="#EF6F0E"/>
<path d="M54.6125 36.9185H39.3877C38.5045 36.9185 37.7859 37.637 37.7859 38.5203V50.7805C37.7859 51.6638 38.5045 52.3824 39.3877 52.3824H54.6125C55.4957 52.3824 56.2143 51.6638 56.2143 50.7805V38.5203C56.2141 37.637 55.4955 36.9185 54.6125 36.9185ZM54.3782 44.0087H49.5704V38.7544H54.3784V44.0087H54.3782ZM47.7345 38.7544V44.0087H39.6218V38.7544H47.7345ZM39.6218 45.8446H43.6954V50.5462H39.6218V45.8446ZM45.5313 50.5464V45.8448H54.3784V50.5464H45.5313Z" fill="#EF6F0E"/>
<path d="M49.8077 59.7359H44.1923C43.6729 59.7359 43.2517 60.1569 43.2517 60.6765C43.2517 61.1958 43.6727 61.617 44.1923 61.617H49.8077C50.3271 61.617 50.7482 61.1958 50.7482 60.6765C50.748 60.1569 50.3271 59.7359 49.8077 59.7359Z" fill="#D0E9F8"/>
<path d="M33.6765 8.49561C33.0677 8.49561 32.5722 8.00028 32.5722 7.39111C32.5722 6.88403 32.1613 6.47314 31.6542 6.47314C31.1472 6.47314 30.7363 6.88403 30.7363 7.39111C30.7363 8.00009 30.2408 8.49561 29.6316 8.49561C29.1245 8.49561 28.7136 8.9065 28.7136 9.41358C28.7136 9.92067 29.1245 10.3316 29.6316 10.3316C30.2406 10.3316 30.7363 10.8269 30.7363 11.4361C30.7363 11.9431 31.1472 12.354 31.6542 12.354C32.1613 12.354 32.5722 11.9431 32.5722 11.4361C32.5722 10.8271 33.0675 10.3316 33.6765 10.3316C34.1836 10.3316 34.5945 9.92067 34.5945 9.41358C34.5945 8.9065 34.1836 8.49561 33.6765 8.49561Z" fill="#536587"/>
<path d="M67.5148 11.9343L65.4962 9.91571C65.138 9.55715 64.5564 9.55715 64.1982 9.91571L62.1796 11.9343C62.0074 12.1065 61.9106 12.3399 61.9106 12.5833C61.9106 12.8268 62.0074 13.0603 62.1796 13.2325L64.1982 15.2509C64.3776 15.4301 64.6124 15.5197 64.8472 15.5197C65.082 15.5197 65.317 15.4301 65.4962 15.2509L67.5148 13.2325C67.6871 13.0603 67.7838 12.8268 67.7838 12.5833C67.7838 12.3399 67.6872 12.1065 67.5148 11.9343ZM64.8472 13.3037L64.1268 12.5833L64.8472 11.8629L65.5677 12.5833L64.8472 13.3037Z" fill="#536587"/>
</g>
<defs>
<clipPath id="clip0">
<rect width="94" height="94" fill="white"/>
</clipPath>
</defs>
</svg>
