<svg width="91" height="91" viewBox="0 0 91 91" fill="none" xmlns="http://www.w3.org/2000/svg">
<g clip-path="url(#clip0)">
<path d="M72.5562 27.418C68.3444 25.7764 64.7861 22.7811 62.61 18.819C58.9504 12.1563 51.8695 7.63989 43.7308 7.63989C35.2831 7.63989 27.9754 12.5057 24.4507 19.587C22.292 23.9239 18.6186 27.3291 14.1262 29.1422C7.48813 31.8215 1.91545 37.9443 0.146994 47.5169C-0.0470918 48.5673 -0.0499356 49.6472 0.14415 50.6976C2.88979 65.5513 14.7893 72.1031 25.6195 70.3657C31.6849 69.3928 37.8249 71.416 42.3207 75.6021C51.4623 84.1142 66.1165 86.7829 80.3422 77.6585C82.0088 76.5896 84.2447 74.3466 85.3127 72.6793C97.5703 53.5426 88.4902 33.6284 72.5562 27.418Z" fill="#ECF8FF"/>
<path d="M78.3809 16.4376H57.1912C56.3601 15.283 55.3634 14.2555 54.2339 13.3926C53.058 12.4942 51.3635 13.3153 51.3635 14.7951V16.4376H39.6365V14.7955C39.6365 13.3187 37.9449 12.4926 36.7709 13.3889C35.6395 14.2527 34.641 15.2812 33.8086 16.4376H12.6191C11.1475 16.4376 9.95312 17.632 9.95312 19.1036V64.2926C9.95312 65.7642 11.1475 66.9586 12.6191 66.9586H78.3809C79.8525 66.9586 81.0469 65.7642 81.0469 64.2926V19.1036C81.0469 17.632 79.8525 16.4376 78.3809 16.4376Z" fill="#D0E9F8"/>
<path d="M55.5792 83.6136H35.4204L39.4518 67.6345H51.5478L55.5792 83.6136Z" fill="#D0E9F8"/>
<path d="M52.9519 73.198H38.0476L39.4517 67.6345H51.5478L52.9519 73.198Z" fill="#8E8CA8"/>
<path d="M81.0469 22.8365V68.0255C81.0469 69.4972 79.8525 70.6915 78.3809 70.6915H12.6191C11.1475 70.6915 9.95312 69.4972 9.95312 68.0255V22.8365C9.95312 21.3649 11.1475 20.1705 12.6191 20.1705H78.3809C79.8525 20.1705 81.0469 21.3649 81.0469 22.8365Z" fill="white"/>
<path opacity="0.5" d="M81.0469 36.5258V22.8365C81.0469 21.3649 79.8525 20.1705 78.3809 20.1705H12.6191C11.1475 20.1705 9.95312 21.3649 9.95312 22.8365V36.5258H81.0469Z" fill="#FFD5B8"/>
<path d="M40.4346 36.8733H50.5654V61.7348H40.4346V36.8733Z" fill="white"/>
<path d="M50.5654 36.8733V44.5123C48.9889 45.1077 47.2827 45.4312 45.5 45.4312C43.7209 45.4312 42.0129 45.0988 40.4346 44.4945V36.8733H50.5654Z" fill="#8E8CA8"/>
<path d="M81.0469 28.7324V22.8367C81.0469 21.3644 79.8532 20.1707 78.3809 20.1707H12.6191C11.1468 20.1707 9.95312 21.3644 9.95312 22.8367V28.7324H81.0469Z" fill="#EF6F0E"/>
<path d="M9.95312 61.7352V68.0252C9.95312 69.4975 11.1468 70.6912 12.6191 70.6912H78.3809C79.8532 70.6912 81.0469 69.4975 81.0469 68.0252V61.7352H9.95312Z" fill="#D0E9F8"/>
<path d="M59.8966 28.5697C59.8966 36.5214 53.4521 42.966 45.5005 42.9662C37.5446 42.9664 31.0022 36.3355 31.1047 28.3802C31.1639 23.7895 33.373 19.7155 36.7709 17.1213C37.9448 16.2252 39.6365 17.0511 39.6365 18.5279V24.6594C39.6365 25.641 40.4322 26.4367 41.4138 26.4367H49.5861C50.5677 26.4367 51.3634 25.641 51.3634 24.6594V18.5274C51.3634 17.0475 53.0579 16.2264 54.2338 17.1249C57.676 19.755 59.8966 23.9038 59.8966 28.5697Z" fill="white"/>
<path d="M16.7217 25.3531C17.2126 25.3531 17.6104 24.9553 17.6104 24.4644V24.4385C17.6104 23.9476 17.2126 23.5498 16.7217 23.5498C16.2308 23.5498 15.833 23.9476 15.833 24.4385V24.4644C15.833 24.9553 16.2308 25.3531 16.7217 25.3531Z" fill="white"/>
<path d="M20.1562 25.3531C20.6472 25.3531 21.0449 24.9553 21.0449 24.4644V24.4385C21.0449 23.9476 20.6472 23.5498 20.1562 23.5498C19.6653 23.5498 19.2676 23.9476 19.2676 24.4385V24.4644C19.2676 24.9553 19.6655 25.3531 20.1562 25.3531Z" fill="white"/>
<path d="M23.5908 25.3531C24.0817 25.3531 24.4795 24.9553 24.4795 24.4644V24.4385C24.4795 23.9476 24.0817 23.5498 23.5908 23.5498C23.0999 23.5498 22.7021 23.9476 22.7021 24.4385V24.4644C22.7021 24.9553 23.1001 25.3531 23.5908 25.3531Z" fill="white"/>
<path d="M78.3809 19.2819H57.6483C56.8331 18.2211 55.871 17.2575 54.7735 16.4191C53.9548 15.7935 52.8747 15.6881 51.9542 16.1425C51.0418 16.5938 50.475 17.5077 50.475 18.5276V19.2819H44.5297C44.0388 19.2819 43.6411 19.6796 43.6411 20.1705C43.6411 20.6614 44.0388 21.0592 44.5297 21.0592H50.475V24.6596C50.475 25.1496 50.0763 25.5482 49.5863 25.5482H41.4141C40.9241 25.5482 40.5254 25.1496 40.5254 24.6596V18.5281C40.5254 17.5079 39.9581 16.5933 39.0445 16.1415C38.1256 15.6868 37.0482 15.7919 36.232 16.415C35.1342 17.2532 34.171 18.2185 33.3543 19.2819H12.6191C10.6591 19.2819 9.06445 20.8765 9.06445 22.8365V68.0252C9.06445 69.9852 10.6591 71.5798 12.6191 71.5798H37.54L34.7284 82.724H32.0039C31.513 82.724 31.1152 83.1217 31.1152 83.6126C31.1152 84.1035 31.513 84.5013 32.0039 84.5013H58.9959C59.4868 84.5013 59.8846 84.1035 59.8846 83.6126C59.8846 83.1217 59.4868 82.724 58.9959 82.724H56.2712L53.4597 71.5798H78.3809C80.3409 71.5798 81.9355 69.9852 81.9355 68.0252V22.8365C81.9355 20.8763 80.3409 19.2819 78.3809 19.2819ZM10.8418 60.8465V29.621H30.2554C30.5054 33.2433 32.0373 36.6364 34.6502 39.2828C36.0819 40.7332 37.7426 41.8609 39.5459 42.6346V60.8465H10.8418ZM41.3232 43.2657C42.6671 43.6514 44.0689 43.8549 45.5004 43.8549C46.9484 43.8549 48.3482 43.648 49.6768 43.27V56.8398C49.6768 57.3307 50.0745 57.7285 50.5654 57.7285C51.0563 57.7285 51.4541 57.3307 51.4541 56.8398V42.6472C56.626 40.4514 60.3444 35.4847 60.745 29.621H80.1582V60.8466H41.3232V43.2657ZM78.3809 21.0592C79.3609 21.0592 80.1582 21.8565 80.1582 22.8365V27.8437H60.7668C60.6547 25.4206 59.9836 23.1092 58.8255 21.0592H78.3809ZM37.3104 17.8278C37.4742 17.7027 37.6637 17.6389 37.8555 17.6389C37.9907 17.6389 38.1269 17.6705 38.2563 17.7343C38.404 17.8074 38.7479 18.0311 38.7479 18.5279V24.6594C38.7479 26.1294 39.9438 27.3254 41.4139 27.3254H49.5861C51.0562 27.3254 52.2521 26.1294 52.2521 24.6594V18.5274C52.2521 18.0313 52.5946 17.8084 52.742 17.7358C53.0564 17.5804 53.4124 17.6158 53.6943 17.831C57.0712 20.4112 59.0078 24.3254 59.0078 28.5697C59.0078 36.0177 52.9483 42.0774 45.5004 42.0775C41.8934 42.0777 38.4893 40.6418 35.915 38.0343C33.3396 35.4255 31.9467 32.0011 31.9934 28.3918C32.0473 24.2165 33.9851 20.366 37.3104 17.8278ZM12.6191 21.0592H32.1777C31.0194 23.1099 30.3453 25.4221 30.2326 27.8437H10.8418V22.8365C10.8418 21.8565 11.6391 21.0592 12.6191 21.0592ZM54.4384 82.724H36.5614L39.3728 71.5798H51.6267L54.4384 82.724ZM78.3809 69.8025H12.6191C11.6391 69.8025 10.8418 69.0052 10.8418 68.0252V62.6238H80.1582V68.0252C80.1582 69.0052 79.3609 69.8025 78.3809 69.8025Z" fill="#536587"/>
<path d="M28.5793 43.5344H25.9166C25.4138 43.5344 25.0061 43.1267 25.0061 42.6239C25.0061 42.1211 25.4136 41.7134 25.9166 41.7134H28.5793C29.0821 41.7134 29.4898 42.1211 29.4898 42.6239C29.4898 43.1267 29.0823 43.5344 28.5793 43.5344Z" fill="#D0E9F8"/>
<path d="M33.1802 47.1458H25.9169C25.4141 47.1458 25.0063 46.7381 25.0063 46.2353C25.0063 45.7325 25.4139 45.3248 25.9169 45.3248H33.1802C33.683 45.3248 34.0907 45.7325 34.0907 46.2353C34.0907 46.7381 33.6832 47.1458 33.1802 47.1458Z" fill="#D0E9F8"/>
<path d="M17.6853 46.3018C17.4496 46.3018 17.2235 46.2081 17.057 46.0416L15.8167 44.8013C15.4696 44.4542 15.4696 43.8915 15.8167 43.5446C16.1635 43.1976 16.7266 43.1976 17.0733 43.5446L17.6851 44.1563L19.8677 41.9738C20.2144 41.6268 20.7775 41.6268 21.1242 41.9738C21.4713 42.3209 21.4713 42.8836 21.1242 43.2305L18.3134 46.0416C18.147 46.2081 17.9209 46.3018 17.6853 46.3018Z" fill="#EF6F0E"/>
<path d="M28.5793 53.2835H25.9166C25.4138 53.2835 25.0061 52.8758 25.0061 52.373C25.0061 51.8702 25.4136 51.4625 25.9166 51.4625H28.5793C29.0821 51.4625 29.4898 51.8702 29.4898 52.373C29.4898 52.8758 29.0823 53.2835 28.5793 53.2835Z" fill="#D0E9F8"/>
<path d="M33.1802 56.8949H25.9169C25.4141 56.8949 25.0063 56.4872 25.0063 55.9844C25.0063 55.4816 25.4139 55.0739 25.9169 55.0739H33.1802C33.683 55.0739 34.0907 55.4816 34.0907 55.9844C34.0907 56.4874 33.6832 56.8949 33.1802 56.8949Z" fill="#D0E9F8"/>
<path d="M17.6853 56.0509C17.4496 56.0509 17.2235 55.9572 17.057 55.7907L15.8167 54.5504C15.4696 54.2033 15.4696 53.6406 15.8167 53.2937C16.1635 52.9467 16.7266 52.9467 17.0733 53.2937L17.6851 53.9054L19.8677 51.7229C20.2144 51.3759 20.7775 51.3759 21.1242 51.7229C21.4713 52.07 21.4713 52.6327 21.1242 52.9796L18.3134 55.7907C18.147 55.9572 17.9209 56.0509 17.6853 56.0509Z" fill="#EF6F0E"/>
<path d="M69.9321 43.5344H67.2694C66.7666 43.5344 66.3589 43.1267 66.3589 42.6239C66.3589 42.1211 66.7664 41.7134 67.2694 41.7134H69.9321C70.4349 41.7134 70.8426 42.1211 70.8426 42.6239C70.8426 43.1267 70.4349 43.5344 69.9321 43.5344Z" fill="#D0E9F8"/>
<path d="M74.533 47.1458H67.2697C66.7669 47.1458 66.3591 46.7381 66.3591 46.2353C66.3591 45.7325 66.7667 45.3248 67.2697 45.3248H74.533C75.0358 45.3248 75.4435 45.7325 75.4435 46.2353C75.4435 46.7381 75.0358 47.1458 74.533 47.1458Z" fill="#D0E9F8"/>
<path d="M59.038 46.3018C58.8024 46.3018 58.5763 46.2081 58.4097 46.0416L57.1695 44.8013C56.8224 44.4542 56.8224 43.8915 57.1695 43.5446C57.5163 43.1976 58.0793 43.1976 58.4261 43.5446L59.0379 44.1563L61.2204 41.9738C61.5672 41.6268 62.1302 41.6268 62.477 41.9738C62.8241 42.3209 62.8241 42.8836 62.477 43.2305L59.6661 46.0416C59.4996 46.2081 59.2737 46.3018 59.038 46.3018Z" fill="#EF6F0E"/>
<path d="M69.9321 53.2835H67.2694C66.7666 53.2835 66.3589 52.8758 66.3589 52.373C66.3589 51.8702 66.7664 51.4625 67.2694 51.4625H69.9321C70.4349 51.4625 70.8426 51.8702 70.8426 52.373C70.8426 52.8758 70.4349 53.2835 69.9321 53.2835Z" fill="#D0E9F8"/>
<path d="M74.533 56.8949H67.2697C66.7669 56.8949 66.3591 56.4872 66.3591 55.9844C66.3591 55.4816 66.7667 55.0739 67.2697 55.0739H74.533C75.0358 55.0739 75.4435 55.4816 75.4435 55.9844C75.4435 56.4874 75.0358 56.8949 74.533 56.8949Z" fill="#D0E9F8"/>
<path d="M59.038 56.0509C58.8024 56.0509 58.5763 55.9572 58.4097 55.7907L57.1695 54.5504C56.8224 54.2033 56.8224 53.6406 57.1695 53.2937C57.5163 52.9467 58.0793 52.9467 58.4261 53.2937L59.0379 53.9054L61.2204 51.7229C61.5672 51.3759 62.1302 51.3759 62.477 51.7229C62.8241 52.07 62.8241 52.6327 62.477 52.9796L59.6661 55.7907C59.4996 55.9572 59.2737 56.0509 59.038 56.0509Z" fill="#EF6F0E"/>
<path d="M65.0871 82.3429C64.5962 82.3429 64.1984 81.9451 64.1984 81.4542C64.1984 80.8647 63.7189 80.385 63.1292 80.385C62.6382 80.385 62.2405 79.9872 62.2405 79.4963C62.2405 79.0054 62.6382 78.6076 63.1292 78.6076C63.7187 78.6076 64.1984 78.1281 64.1984 77.5384C64.1984 77.0475 64.5962 76.6497 65.0871 76.6497C65.578 76.6497 65.9757 77.0475 65.9757 77.5384C65.9757 78.1279 66.4553 78.6076 67.045 78.6076C67.5359 78.6076 67.9337 79.0054 67.9337 79.4963C67.9337 79.9872 67.5359 80.385 67.045 80.385C66.4555 80.385 65.9757 80.8645 65.9757 81.4542C65.9757 81.945 65.578 82.3429 65.0871 82.3429Z" fill="#536587"/>
<path d="M60.9538 15.9287C60.4629 15.9287 60.0651 15.531 60.0651 15.0401C60.0651 14.4505 59.5856 13.9708 58.9959 13.9708C58.5049 13.9708 58.1072 13.573 58.1072 13.0821C58.1072 12.5912 58.5049 12.1935 58.9959 12.1935C59.5854 12.1935 60.0651 11.7139 60.0651 11.1242C60.0651 10.6333 60.4629 10.2355 60.9538 10.2355C61.4447 10.2355 61.8424 10.6333 61.8424 11.1242C61.8424 11.7138 62.322 12.1935 62.9117 12.1935C63.4026 12.1935 63.8004 12.5912 63.8004 13.0821C63.8004 13.573 63.4026 13.9708 62.9117 13.9708C62.3222 13.9708 61.8424 14.4503 61.8424 15.0401C61.8424 15.5308 61.4447 15.9287 60.9538 15.9287Z" fill="#EF6F0E"/>
<path d="M48.6076 12.1917C48.1167 12.1917 47.7189 11.7939 47.7189 11.303C47.7189 10.7134 47.2394 10.2337 46.6497 10.2337C46.1588 10.2337 45.761 9.83597 45.761 9.34507C45.761 8.85417 46.1588 8.4564 46.6497 8.4564C47.2392 8.4564 47.7189 7.97687 47.7189 7.38715C47.7189 6.89624 48.1167 6.49847 48.6076 6.49847C49.0985 6.49847 49.4963 6.89624 49.4963 7.38715C49.4963 7.97669 49.9758 8.4564 50.5655 8.4564C51.0564 8.4564 51.4542 8.85417 51.4542 9.34507C51.4542 9.83597 51.0564 10.2337 50.5655 10.2337C49.976 10.2337 49.4963 10.7133 49.4963 11.303C49.4963 11.7939 49.0985 12.1917 48.6076 12.1917Z" fill="#536587"/>
<path d="M29.3151 79.3621C28.8242 79.3621 28.4264 78.9644 28.4264 78.4735C28.4264 77.8839 27.9469 77.404 27.3572 77.404C26.8663 77.404 26.4685 77.0063 26.4685 76.5154C26.4685 76.0245 26.8663 75.6267 27.3572 75.6267C27.9467 75.6267 28.4264 75.1472 28.4264 74.5574C28.4264 74.0665 28.8242 73.6688 29.3151 73.6688C29.806 73.6688 30.2038 74.0665 30.2038 74.5574C30.2038 75.147 30.6833 75.6267 31.273 75.6267C31.7639 75.6267 32.1617 76.0245 32.1617 76.5154C32.1617 77.0063 31.7639 77.404 31.273 77.404C30.6835 77.404 30.2038 77.8837 30.2038 78.4735C30.2038 78.9644 29.8058 79.3621 29.3151 79.3621Z" fill="#EF6F0E"/>
</g>
<defs>
<clipPath id="clip0">
<rect width="91" height="91" fill="white"/>
</clipPath>
</defs>
</svg>
