<svg width="89" height="91" viewBox="0 0 89 91" fill="none" xmlns="http://www.w3.org/2000/svg">
<path d="M87.892 51.1824C85.8363 45.0695 81.2625 40.5568 75.7497 38.43C72.8937 37.328 70.9962 34.5697 70.9543 31.4659C70.9535 31.3981 70.9522 31.3301 70.9507 31.2621C70.6887 19.8555 61.3053 10.7157 50.0779 10.9116C43.4561 11.0271 37.5991 14.3301 33.9284 19.3753C30.7674 23.72 25.8471 26.434 20.5297 26.4312C20.3736 26.4312 20.2174 26.4328 20.0604 26.4363C9.2975 26.6756 0.145449 36.0583 0.00186716 46.9958C-0.150928 58.6408 9.0936 68.1292 20.5191 68.1292C29.3752 68.1292 36.9197 62.4284 39.7942 54.4416C40.5464 52.3518 42.7757 51.2317 44.8845 51.8325C44.9107 51.84 44.9371 51.8475 44.9635 51.8548C46.8929 52.396 48.1721 54.2639 48.0142 56.2914C47.8027 59.0083 48.1152 61.8117 49.0221 64.5565C52.5892 75.3543 64.1778 81.28 74.8343 77.7466C85.7353 74.1323 91.5877 62.1716 87.892 51.1824Z" fill="#ECF8FF"/>
<path d="M56.1746 28.8622H32.8257C31.8634 28.8622 31.0833 28.0695 31.0833 27.0917V7.79102C31.0833 6.81325 31.8634 6.02057 32.8257 6.02057H56.1746C57.137 6.02057 57.9171 6.81325 57.9171 7.79102V27.0917C57.9171 28.0697 57.137 28.8622 56.1746 28.8622Z" fill="#D0E9F8"/>
<path d="M53.5615 56.2534H35.4385C34.4762 56.2534 33.696 55.4607 33.696 54.4829V43.1472C33.696 42.1694 34.4762 41.3767 35.4385 41.3767H53.5615C54.5238 41.3767 55.3039 42.1694 55.3039 43.1472V54.4829C55.3039 55.4607 54.5238 56.2534 53.5615 56.2534Z" fill="#D0E9F8"/>
<path d="M81.782 41.3767H73.5896V41.0517C73.5896 38.6128 71.6368 36.6286 69.2364 36.6286H19.7636C17.3632 36.6286 15.4104 38.6128 15.4104 41.0517V41.3767H7.21804C6.25573 41.3767 5.47559 42.1694 5.47559 43.1472V54.4829C5.47559 55.4607 6.25573 56.2534 7.21804 56.2534H25.341C26.3033 56.2534 27.0835 55.4607 27.0835 54.4829V43.1472C27.0835 42.1694 26.3033 41.3767 25.341 41.3767H17.1487V41.0517C17.1487 39.5867 18.3217 38.3948 19.7636 38.3948H69.2364C70.6783 38.3948 71.8513 39.5867 71.8513 41.0517V41.3767H63.659C62.6967 41.3767 61.9165 42.1694 61.9165 43.1472V54.4829C61.9165 55.4607 62.6967 56.2534 63.659 56.2534H81.782C82.7443 56.2534 83.5244 55.4607 83.5244 54.4829V43.1472C83.5244 42.1694 82.7443 41.3767 81.782 41.3767Z" fill="#D0E9F8"/>
<path d="M56.1746 32.0414H32.8257C31.8634 32.0414 31.0833 31.2487 31.0833 30.2709V10.9702C31.0833 9.99245 31.8634 9.19977 32.8257 9.19977H56.1746C57.137 9.19977 57.9171 9.99245 57.9171 10.9702V30.2709C57.9171 31.2489 57.137 32.0414 56.1746 32.0414Z" fill="white"/>
<path opacity="0.5" d="M56.1969 9.64001H50.2588V32.4818H56.1969C57.1592 32.4818 57.9394 31.6891 57.9394 30.7113V11.4105C57.9394 10.4327 57.1592 9.64001 56.1969 9.64001Z" fill="#FFD5B8"/>
<path d="M57.9171 14.9832V10.9702C57.9171 9.99245 57.137 9.19977 56.1746 9.19977H32.8257C31.8634 9.19977 31.0833 9.99245 31.0833 10.9702V14.9832H57.9171Z" fill="#EF6F0E"/>
<path d="M46.735 26.3181H36.5285C36.0474 26.3181 35.6575 25.9218 35.6575 25.4331C35.6575 24.9444 36.0474 24.548 36.5285 24.548H46.735C47.2162 24.548 47.6061 24.9444 47.6061 25.4331C47.6059 25.922 47.216 26.3181 46.735 26.3181Z" fill="#EF6F0E"/>
<path d="M42.0306 22.6436H36.5288C36.0476 22.6436 35.6577 22.2473 35.6577 21.7586C35.6577 21.2699 36.0476 20.8735 36.5288 20.8735H42.0306C42.5118 20.8735 42.9017 21.2699 42.9017 21.7586C42.9017 22.2473 42.5116 22.6436 42.0306 22.6436Z" fill="#EF6F0E"/>
<path d="M25.341 59.4326H7.21804C6.25573 59.4326 5.47559 58.6399 5.47559 57.6621V46.3264C5.47559 45.3486 6.25573 44.5559 7.21804 44.5559H25.341C26.3033 44.5559 27.0835 45.3486 27.0835 46.3264V57.6621C27.0835 58.6399 26.3033 59.4326 25.341 59.4326Z" fill="#F5F4F9"/>
<path d="M25.341 59.4326H7.21804C6.25573 59.4326 5.47559 58.6399 5.47559 57.6621V46.3264C5.47559 45.3486 6.25573 44.5559 7.21804 44.5559H25.341C26.3033 44.5559 27.0835 45.3486 27.0835 46.3264V57.6621C27.0835 58.6399 26.3033 59.4326 25.341 59.4326Z" fill="#F5F4F9"/>
<path d="M27.0835 50.3394V46.3264C27.0835 45.3486 26.3033 44.5559 25.341 44.5559H7.21804C6.25573 44.5559 5.47559 45.3486 5.47559 46.3264V50.3394H27.0835Z" fill="#EF6F0E"/>
<path d="M21.6379 55.4433H10.9211C10.4399 55.4433 10.05 55.047 10.05 54.5583C10.05 54.0696 10.4399 53.6732 10.9211 53.6732H21.6378C22.1189 53.6732 22.5088 54.0696 22.5088 54.5583C22.5088 55.047 22.1189 55.4433 21.6379 55.4433Z" fill="#EF6F0E"/>
<path d="M53.5615 59.4326H35.4385C34.4762 59.4326 33.696 58.6399 33.696 57.6621V46.3264C33.696 45.3486 34.4762 44.5559 35.4385 44.5559H53.5615C54.5238 44.5559 55.3039 45.3486 55.3039 46.3264V57.6621C55.3039 58.6399 54.5238 59.4326 53.5615 59.4326Z" fill="#F5F4F9"/>
<path d="M55.3039 50.3394V46.3264C55.3039 45.3486 54.5238 44.5559 53.5615 44.5559H35.4385C34.4762 44.5559 33.696 45.3486 33.696 46.3264V50.3394H55.3039Z" fill="#EF6F0E"/>
<path d="M49.8585 55.4433H39.1418C38.6606 55.4433 38.2708 55.047 38.2708 54.5583C38.2708 54.0696 38.6606 53.6732 39.1418 53.6732H49.8585C50.3396 53.6732 50.7295 54.0696 50.7295 54.5583C50.7295 55.047 50.3395 55.4433 49.8585 55.4433Z" fill="#EF6F0E"/>
<path d="M81.7819 59.4326H63.659C62.6966 59.4326 61.9165 58.6399 61.9165 57.6621V46.3264C61.9165 45.3486 62.6966 44.5559 63.659 44.5559H81.7819C82.7442 44.5559 83.5244 45.3486 83.5244 46.3264V57.6621C83.5244 58.6399 82.7442 59.4326 81.7819 59.4326Z" fill="#F5F4F9"/>
<path d="M83.5244 50.3394V46.3264C83.5244 45.3486 82.7442 44.5559 81.7819 44.5559H63.659C62.6966 44.5559 61.9165 45.3486 61.9165 46.3264V50.3394H83.5244Z" fill="#EF6F0E"/>
<path d="M78.079 55.4433H67.3623C66.8811 55.4433 66.4912 55.047 66.4912 54.5583C66.4912 54.0696 66.8811 53.6732 67.3623 53.6732H78.079C78.5601 53.6732 78.95 54.0696 78.95 54.5583C78.95 55.047 78.5599 55.4433 78.079 55.4433Z" fill="#EF6F0E"/>
<path d="M68.7169 65.6009H60.5245V65.2757C60.5245 62.8368 58.5718 60.8526 56.1714 60.8526H32.8285C30.4281 60.8526 28.4753 62.8368 28.4753 65.2757V65.6009H20.283C19.3207 65.6009 18.5405 66.3936 18.5405 67.3714V78.7071C18.5405 79.6849 19.3207 80.4776 20.283 80.4776H38.406C39.3683 80.4776 40.1484 79.6849 40.1484 78.7071V67.3714C40.1484 66.3936 39.3683 65.6009 38.406 65.6009H30.2136V65.2757C30.2136 63.8107 31.3866 62.6188 32.8285 62.6188H56.1714C57.6133 62.6188 58.7863 63.8107 58.7863 65.2757V65.6009H50.5939C49.6316 65.6009 48.8515 66.3936 48.8515 67.3714V78.7071C48.8515 79.6849 49.6316 80.4776 50.5939 80.4776H68.7169C69.6792 80.4776 70.4593 79.6849 70.4593 78.7071V67.3714C70.4593 66.3936 69.6792 65.6009 68.7169 65.6009Z" fill="#D0E9F8"/>
<path d="M38.406 83.6568H20.2832C19.3209 83.6568 18.5408 82.8641 18.5408 81.8863V70.5505C18.5408 69.5728 19.3209 68.7801 20.2832 68.7801H38.4062C39.3685 68.7801 40.1486 69.5728 40.1486 70.5505V81.8863C40.1486 82.8641 39.3685 83.6568 38.406 83.6568Z" fill="#F5F4F9"/>
<path d="M40.1486 74.5635V70.5505C40.1486 69.5728 39.3685 68.7801 38.4062 68.7801H20.2832C19.3209 68.7801 18.5408 69.5728 18.5408 70.5505V74.5635H40.1486Z" fill="#EF6F0E"/>
<path d="M34.7027 79.6676H23.986C23.5049 79.6676 23.115 79.2713 23.115 78.7826C23.115 78.2939 23.5049 77.8975 23.986 77.8975H34.7027C35.1839 77.8975 35.5738 78.2939 35.5738 78.7826C35.5738 79.2713 35.1839 79.6676 34.7027 79.6676Z" fill="#EF6F0E"/>
<path d="M68.717 83.6568H50.594C49.6317 83.6568 48.8516 82.8641 48.8516 81.8863V70.5505C48.8516 69.5728 49.6317 68.7801 50.594 68.7801H68.717C69.6793 68.7801 70.4594 69.5728 70.4594 70.5505V81.8863C70.4594 82.8641 69.6793 83.6568 68.717 83.6568Z" fill="#F5F4F9"/>
<path d="M70.4593 74.5635V70.5505C70.4593 69.5728 69.6791 68.7801 68.7168 68.7801H50.594C49.6317 68.7801 48.8516 69.5728 48.8516 70.5505V74.5635H70.4593Z" fill="#EF6F0E"/>
<path d="M65.0137 79.6676H54.2971C53.8159 79.6676 53.426 79.2713 53.426 78.7826C53.426 78.2939 53.8159 77.8975 54.2971 77.8975H65.0137C65.4949 77.8975 65.8848 78.2939 65.8848 78.7826C65.8848 79.2713 65.4949 79.6676 65.0137 79.6676Z" fill="#EF6F0E"/>
<path d="M81.782 43.6728H73.5889C73.5738 41.2469 71.6274 39.2779 69.2364 39.2779H45.3691V32.9246H56.1745C57.6145 32.9246 58.7859 31.7342 58.7859 30.2711V19.858C58.7859 19.3703 58.3969 18.9749 57.9167 18.9749C57.4366 18.9749 57.0476 19.3703 57.0476 19.858V30.2711C57.0476 30.7603 56.6558 31.1584 56.1745 31.1584H32.8255C32.344 31.1584 31.9522 30.7603 31.9522 30.2711V15.8663H57.9169C58.397 15.8663 58.7861 15.4709 58.7861 14.9832V10.9702C58.7861 9.50708 57.6146 8.31665 56.1746 8.31665H32.8255C31.3855 8.31665 30.2139 9.50708 30.2139 10.9702V30.2709C30.2139 31.734 31.3855 32.9245 32.8255 32.9245H43.6309V39.2777H19.7636C17.3726 39.2777 15.4262 41.2467 15.4111 43.6726H7.21804C5.77805 43.6726 4.60645 44.863 4.60645 46.3262V57.6619C4.60645 59.125 5.77805 60.3155 7.21804 60.3155H25.341C26.781 60.3155 27.9526 59.125 27.9526 57.6619V46.3262C27.9526 44.863 26.781 43.6726 25.341 43.6726H17.1501C17.1652 42.2206 18.331 41.0439 19.7636 41.0439H43.6309V43.6726H35.4385C33.9985 43.6726 32.8269 44.863 32.8269 46.3262V57.6619C32.8269 59.125 33.9985 60.3155 35.4385 60.3155H43.6309V63.5019H32.8285C30.4375 63.5019 28.4911 65.4709 28.476 67.8968H20.283C18.843 67.8968 17.6714 69.0872 17.6714 70.5504V81.8861C17.6714 83.3492 18.843 84.5397 20.283 84.5397H38.4059C39.8459 84.5397 41.0175 83.3492 41.0175 81.8861V70.5504C41.0175 69.087 39.8459 67.8968 38.4059 67.8968H30.215C30.2301 66.4448 31.396 65.2681 32.8285 65.2681H56.1713C57.6039 65.2681 58.7697 66.4448 58.7849 67.8968H50.5939C49.1539 67.8968 47.9823 69.0872 47.9823 70.5504V81.8861C47.9823 83.3492 49.1539 84.5397 50.5939 84.5397H68.7169C70.1569 84.5397 71.3283 83.3492 71.3283 81.8861V70.5504C71.3283 69.087 70.1569 67.8968 68.7169 67.8968H60.5238C60.5087 65.4709 58.5623 63.5019 56.1713 63.5019H45.3691V60.3155H53.5615C55.0015 60.3155 56.1731 59.125 56.1731 57.6619V46.3262C56.1731 44.863 55.0015 43.6726 53.5615 43.6726H45.3691V41.0439H69.2364C70.669 41.0439 71.8348 42.2206 71.8499 43.6726H63.659C62.219 43.6726 61.0476 44.863 61.0476 46.3262V57.6619C61.0476 59.125 62.219 60.3155 63.659 60.3155H81.782C83.222 60.3155 84.3936 59.125 84.3936 57.6619V46.3262C84.3936 44.8632 83.222 43.6728 81.782 43.6728ZM31.9522 10.9702C31.9522 10.481 32.344 10.0829 32.8255 10.0829H56.1745C56.656 10.0829 57.0476 10.481 57.0476 10.9702V14.1001H31.952V10.9702H31.9522ZM25.341 58.5494H7.21804C6.73653 58.5494 6.34473 58.1513 6.34473 57.6621V51.2225H26.2143V57.6621C26.2143 58.1513 25.8225 58.5494 25.341 58.5494ZM26.2143 46.3263V49.4562H6.34473V46.3263C6.34473 45.8371 6.73653 45.439 7.21804 45.439H25.341C25.8225 45.439 26.2143 45.8371 26.2143 46.3263ZM39.2792 70.5505V81.8863C39.2792 82.3755 38.8874 82.7736 38.4059 82.7736H20.2831C19.8016 82.7736 19.4098 82.3755 19.4098 81.8863V75.4467H35.3511C35.831 75.4467 36.2202 75.0512 36.2202 74.5635C36.2202 74.0759 35.831 73.6804 35.3511 73.6804H19.4098V70.5505C19.4098 70.0611 19.8016 69.6632 20.2831 69.6632H38.4061C38.8874 69.6632 39.2792 70.0613 39.2792 70.5505ZM68.7169 82.7736H50.5941C50.1124 82.7736 49.7208 82.3755 49.7208 81.8863V75.4467H69.5903V81.8863C69.5902 82.3755 69.1984 82.7736 68.7169 82.7736ZM69.5902 70.5505V73.6804H49.7206V70.5505C49.7206 70.0611 50.1124 69.6632 50.5939 69.6632H68.7169C69.1984 69.6632 69.5902 70.0613 69.5902 70.5505ZM53.5615 58.5494H35.4385C34.957 58.5494 34.5652 58.1513 34.5652 57.6621V51.2225H54.4348V57.6621C54.4348 58.1513 54.043 58.5494 53.5615 58.5494ZM54.4348 46.3263V49.4562H34.5652V46.3263C34.5652 45.8371 34.957 45.439 35.4385 45.439H53.5615C54.043 45.439 54.4348 45.8371 54.4348 46.3263ZM63.659 45.439H81.782C82.2636 45.439 82.6553 45.8371 82.6553 46.3263V49.4562H62.7857V46.3263C62.7857 45.8371 63.1775 45.439 63.659 45.439ZM81.782 58.5494H63.659C63.1775 58.5494 62.7859 58.1513 62.7859 57.6621V51.2225H82.6553V57.6621C82.6553 58.1513 82.2635 58.5494 81.782 58.5494Z" fill="#536587"/>
<path d="M22.5089 23.759C22.0289 23.759 21.6397 23.3636 21.6397 22.8759C21.6397 22.2894 21.1701 21.8121 20.5928 21.8121C20.1128 21.8121 19.7236 21.4167 19.7236 20.929C19.7236 20.4414 20.1128 20.0459 20.5928 20.0459C21.1701 20.0459 21.6397 19.5687 21.6397 18.9819C21.6397 18.4943 22.0289 18.0988 22.5089 18.0988C22.9888 18.0988 23.378 18.4943 23.378 18.9819C23.378 19.5687 23.8477 20.0459 24.425 20.0459C24.9049 20.0459 25.2941 20.4414 25.2941 20.929C25.2941 21.4167 24.9049 21.8121 24.425 21.8121C23.8477 21.8121 23.378 22.2894 23.378 22.8759C23.378 23.3636 22.9888 23.759 22.5089 23.759Z" fill="#536587"/>
<path d="M77.5271 70.6258C77.047 70.6258 76.658 70.2303 76.658 69.7427C76.658 69.1561 76.1883 68.6789 75.6108 68.6789C75.1307 68.6789 74.7417 68.2834 74.7417 67.7958C74.7417 67.3081 75.1307 66.9127 75.6108 66.9127C76.1883 66.9127 76.658 66.4354 76.658 65.8487C76.658 65.361 77.047 64.9656 77.5271 64.9656C78.0072 64.9656 78.3963 65.361 78.3963 65.8487C78.3963 66.4354 78.8659 66.9127 79.4432 66.9127C79.9233 66.9127 80.3124 67.3081 80.3124 67.7958C80.3124 68.2834 79.9233 68.6789 79.4432 68.6789C78.8659 68.6789 78.3963 69.1561 78.3963 69.7427C78.3963 70.2303 78.0072 70.6258 77.5271 70.6258Z" fill="#536587"/>
<path d="M64.5748 35.8741C64.3524 35.8741 64.1298 35.7879 63.9603 35.6155L62.0442 33.6686C61.7047 33.3237 61.7047 32.7645 62.0442 32.4197L63.9603 30.4728C64.2994 30.128 64.8501 30.128 65.1892 30.4728L67.1053 32.4197C67.4448 32.7646 67.4448 33.3238 67.1053 33.6686L65.1892 35.6155C65.0198 35.7877 64.7973 35.8741 64.5748 35.8741ZM63.8878 33.0439L64.5748 33.7419L65.2617 33.0439L64.5748 32.3459L63.8878 33.0439Z" fill="#EF6F0E"/>
<path d="M11.9663 77.3938C11.7438 77.3938 11.5215 77.3076 11.3517 77.1352L9.43539 75.1883C9.27234 75.0226 9.18091 74.7982 9.18091 74.5638C9.18091 74.3294 9.27252 74.1049 9.43539 73.9392L11.3517 71.9922C11.5147 71.8265 11.7357 71.7336 11.9663 71.7336C12.1968 71.7336 12.4179 71.8267 12.581 71.9922L14.4971 73.9392C14.8366 74.2842 14.8366 74.8434 14.4971 75.1881L12.581 77.135C12.4112 77.3074 12.1888 77.3938 11.9663 77.3938ZM11.2794 74.5636L11.9665 75.2618L12.6536 74.5636L11.9665 73.8654L11.2794 74.5636Z" fill="#EF6F0E"/>
<path d="M50.2364 23.3627C51.5893 23.3627 52.6861 22.2483 52.6861 20.8736C52.6861 19.4989 51.5893 18.3845 50.2364 18.3845C48.8834 18.3845 47.7866 19.4989 47.7866 20.8736C47.7866 22.2483 48.8834 23.3627 50.2364 23.3627Z" fill="#EF6F0E"/>
</svg>
