<svg width="1052" height="696" fill="none" xmlns="http://www.w3.org/2000/svg"><path opacity=".1" d="M1051 .883h-.96V0H.963v.883H0V1058.91h.963v.97H1050.12v-.97h.97V.883h-.09zM526.42 529.014v-31.181h30.919v31.181H526.42zm-1.84-31.181v31.181h-30.919v-31.181h30.919zm0 33.036v31.181h-30.919v-31.181h30.919zm1.84 0h30.919v31.181H526.42v-31.181zm30.919-34.891H526.42v-31.18h30.919v31.18zm-32.759 0h-30.919v-31.18h30.919v31.18zm34.599 66.072v-31.181h30.919v31.181h-30.919zm0-33.036v-31.181h30.919v31.181h-30.919zm0-33.036v-31.18h30.919v31.18h-30.919zm-67.358-31.18v31.18h-30.919v-31.18h30.919zm0 33.035v31.181h-30.919v-31.181h30.919zm0 33.036v31.181h-30.919v-31.181h30.919zm0 33.036v31.181h-30.919v-31.181h30.919zm1.84 0h30.919v31.181h-30.919v-31.181zm32.759 0h30.919v31.181H526.42v-31.181zm32.759 0h30.919v31.181h-30.919v-31.181zm30.919-100.962h-30.919v-31.181h30.919v31.181zm-32.759 0H526.42v-31.181h30.919v31.181zm-32.759 0h-30.919v-31.181h30.919v31.181zm-32.759 0h-30.919v-31.181h30.919v31.181zm100.204 132.143v-31.181h30.92v31.181h-30.92zm0-33.036v-31.181h30.92v31.181h-30.92zm0-33.036v-31.181h30.92v31.181h-30.92zm0-33.036v-31.18h30.92v31.18h-30.92zm0-33.035v-31.181h30.92v31.181h-30.92zm-133.05-31.181v31.181h-30.92v-31.181h30.92zm0 33.036v31.18h-30.92v-31.18h30.92zm0 33.035v31.181h-30.92v-31.181h30.92zm0 33.036v31.181h-30.92v-31.181h30.92zm0 33.036v31.181h-30.92v-31.181h30.92zm0 33.124v31.181h-30.92v-31.181h30.92zm1.927 0h30.919v31.181h-30.919v-31.181zm32.759 0h30.919v31.181h-30.919v-31.181zm32.759 0h30.919v31.181H526.42v-31.181zm32.759 0h30.919v31.181h-30.919v-31.181zm32.846 0h30.92v31.181h-30.92v-31.181zm30.832-167.21h-30.92v-31.181h30.92v31.181zm-32.759 0h-30.919v-31.181h30.919v31.181zm-32.759 0H526.42v-31.181h30.919v31.181zm-32.759 0h-30.919v-31.181h30.919v31.181zm-32.759 0h-30.919v-31.181h30.919v31.181zm-32.846 0h-30.92v-31.181h30.92v31.181zm165.809 198.303v-31.181h31.007v31.181h-31.007zm0-33.036v-31.181h31.007v31.181h-31.007zm0-33.036v-31.181h31.007v31.181h-31.007zm0-33.036v-31.181h31.007v31.181h-31.007zm0-33.036v-31.18h31.007v31.18h-31.007zm0-33.035v-31.181h31.007v31.181h-31.007zm0-33.124v-31.181h31.007v31.181h-31.007zm-198.568-31.093v31.181h-30.919v-31.181h30.919zm0 33.036v31.181h-30.919v-31.181h30.919zm0 33.036v31.18h-30.919v-31.18h30.919zm0 33.035v31.181h-30.919v-31.181h30.919zm0 33.036v31.181h-30.919v-31.181h30.919zm0 33.036v31.181h-30.919v-31.181h30.919zm0 33.124v31.181h-30.919v-31.181h30.919zm0 33.036v31.269h-30.919v-31.269h30.919zm1.927 0h30.832v31.269h-30.92v-31.269h.088zm32.759 0h30.919v31.269h-30.919v-31.269zm32.759 0h30.919v31.269h-30.919v-31.269zm32.759 0h30.919v31.269H526.42v-31.269zm32.759 0h30.919v31.269h-30.919v-31.269zm32.846 0h30.92v31.269h-30.92v-31.269zm32.759 0h31.007v31.269h-31.007v-31.269zm31.007-233.282h-31.007v-31.269h31.007v31.269zm-32.934 0h-30.92v-31.269h30.92v31.269zm-32.759 0h-30.919v-31.269h30.919v31.269zm-32.759 0H526.42v-31.269h30.919v31.269zm-32.759 0h-30.919v-31.269h30.919v31.269zm-32.759 0h-30.919v-31.269h30.919v31.269zm-32.846 0h-30.92v-31.269h30.92v31.269zm-32.759 0h-30.919v-31.269h30.919v31.269zM657.63 661.334v-31.269h30.92v31.269h-30.92zm0-33.212v-31.181h30.92v31.181h-30.92zm0-33.036v-31.181h30.92v31.181h-30.92zm0-33.036v-31.181h30.92v31.181h-30.92zm0-33.036v-31.181h30.92v31.181h-30.92zm0-33.036v-31.18h30.92v31.18h-30.92zm0-33.035v-31.181h30.92v31.181h-30.92zm0-33.124v-31.181h30.92v31.181h-30.92zm0-33.036v-31.269h30.92v31.269h-30.92zm-264.173-31.269v31.269H362.45v-31.269h31.007zm0 33.212v31.181H362.45v-31.181h31.007zm0 33.036v31.181H362.45v-31.181h31.007zm0 33.036v31.18H362.45v-31.18h31.007zm0 33.035v31.181H362.45v-31.181h31.007zm0 33.036v31.181H362.45v-31.181h31.007zm0 33.036v31.181H362.45v-31.181h31.007zm0 33.124v31.181H362.45v-31.181h31.007zm0 33.036v31.269H362.45v-31.269h31.007zm0 33.124v31.181H362.45v-31.181h31.007zm1.927 0h30.92v31.181h-30.92v-31.181zm32.759 0h30.832v31.181h-30.92v-31.181h.088zm32.759 0h30.919v31.181h-30.919v-31.181zm32.759 0h30.919v31.181h-30.919v-31.181zm32.759 0h30.919v31.181H526.42v-31.181zm32.759 0h30.919v31.181h-30.919v-31.181zm32.846 0h30.92v31.181h-30.92v-31.181zm32.759 0h31.007v31.181h-31.007v-31.181zm32.846 0h30.92v31.181h-30.92v-31.181zm30.92-299.53h-30.92v-31.181h30.92v31.181zm-32.759 0h-31.007v-31.181h31.007v31.181zm-32.934 0h-30.92v-31.181h30.92v31.181zm-32.759 0h-30.919v-31.181h30.919v31.181zm-32.759 0H526.42v-31.181h30.919v31.181zm-32.759 0h-30.919v-31.181h30.919v31.181zm-32.759 0h-30.919v-31.181h30.919v31.181zm-32.846 0h-30.92v-31.181h30.92v31.181zm-32.759 0h-30.919v-31.181h30.919v31.181zm-32.759 0H362.45v-31.181h31.007v31.181zM690.389 694.37v-31.181h30.92v31.181h-30.92zm0-33.036v-31.269h30.92v31.269h-30.92zm0-33.212v-31.181h30.92v31.181h-30.92zm0-33.036v-31.181h30.92v31.181h-30.92zm0-33.036v-31.181h30.92v31.181h-30.92zm0-33.036v-31.181h30.92v31.181h-30.92zm0-33.036v-31.18h30.92v31.18h-30.92zm0-33.035v-31.181h30.92v31.181h-30.92zm0-33.124v-31.181h30.92v31.181h-30.92zm0-33.036v-31.269h30.92v31.269h-30.92zm0-33.124v-31.181h30.92v31.181h-30.92zm-329.778-31.181v31.181h-30.92v-31.181h30.92zm0 33.036v31.269h-30.92v-31.269h30.92zm0 33.212v31.181h-30.92v-31.181h30.92zm0 33.036v31.181h-30.92v-31.181h30.92zm0 33.036v31.18h-30.92v-31.18h30.92zm0 33.035v31.181h-30.92v-31.181h30.92zm0 33.036v31.181h-30.92v-31.181h30.92zm0 33.036v31.181h-30.92v-31.181h30.92zm0 33.124v31.181h-30.92v-31.181h30.92zm0 33.036v31.269h-30.92v-31.269h30.92zm0 33.124v31.181h-30.92v-31.181h30.92zm0 33.036v31.181h-30.92v-31.181h30.92zm1.839 0h31.007v31.181H362.45v-31.181zm32.934 0h30.92v31.181h-30.92v-31.181zm32.759 0h30.832v31.181h-30.92v-31.181h.088zm32.759 0h30.919v31.181h-30.919v-31.181zm32.759 0h30.919v31.181h-30.919v-31.181zm32.759 0h30.919v31.181H526.42v-31.181zm32.759 0h30.919v31.181h-30.919v-31.181zm32.846 0h30.92v31.181h-30.92v-31.181zm32.759 0h31.007v31.181h-31.007v-31.181zm32.846 0h30.92v31.181h-30.92v-31.181zm32.759 0h30.92v31.181h-30.92v-31.181zm30.92-365.602h-30.92v-31.181h30.92v31.181zm-32.759 0h-30.92v-31.181h30.92v31.181zm-32.759 0h-31.007v-31.181h31.007v31.181zm-32.934 0h-30.92v-31.181h30.92v31.181zm-32.759 0h-30.919v-31.181h30.919v31.181zm-32.759 0H526.42v-31.181h30.919v31.181zm-32.759 0h-30.919v-31.181h30.919v31.181zm-32.759 0h-30.919v-31.181h30.919v31.181zm-32.846 0h-30.92v-31.181h30.92v31.181zm-32.759 0h-30.919v-31.181h30.919v31.181zm-32.759 0H362.45v-31.181h31.007v31.181zm-32.846 0h-30.92v-31.181h30.92v31.181zm362.537 396.783v-31.181h30.92v31.181h-30.92zm0-33.036v-31.181h30.92v31.181h-30.92zm0-33.036v-31.269h30.92v31.269h-30.92zm0-33.212v-31.181h30.92v31.181h-30.92zm0-33.036v-31.181h30.92v31.181h-30.92zm0-33.036v-31.181h30.92v31.181h-30.92zm0-33.036v-31.181h30.92v31.181h-30.92zm0-33.036v-31.18h30.92v31.18h-30.92zm0-33.035v-31.181h30.92v31.181h-30.92zm0-33.124v-31.181h30.92v31.181h-30.92zm0-33.036v-31.269h30.92v31.269h-30.92zm0-33.124v-31.181h30.92v31.181h-30.92zm0-33.036v-31.181h30.92v31.181h-30.92zm-395.296-31.181v31.181h-30.92v-31.181h30.92zm0 33.036v31.181h-30.92v-31.181h30.92zm0 33.036v31.269h-30.92v-31.269h30.92zm0 33.212v31.181h-30.92v-31.181h30.92zm0 33.036v31.181h-30.92v-31.181h30.92zm0 33.036v31.18h-30.92v-31.18h30.92zm0 33.035v31.181h-30.92v-31.181h30.92zm0 33.036v31.181h-30.92v-31.181h30.92zm0 33.036v31.181h-30.92v-31.181h30.92zm0 33.124v31.181h-30.92v-31.181h30.92zm0 33.036v31.269h-30.92v-31.269h30.92zm0 33.124v31.181h-30.92v-31.181h30.92zm0 33.036v31.181h-30.92v-31.181h30.92zm0 33.036v31.18h-30.92v-31.18h30.92zm1.839 0h30.92v31.18h-30.92v-31.18zm32.759 0h31.007v31.18H362.45v-31.18zm32.934 0h30.92v31.18h-30.92v-31.18zm32.759 0h30.832v31.18h-30.92v-31.18h.088zm32.759 0h30.919v31.18h-30.919v-31.18zm32.759 0h30.919v31.18h-30.919v-31.18zm32.759 0h30.919v31.18H526.42v-31.18zm32.759 0h30.919v31.18h-30.919v-31.18zm32.846 0h30.92v31.18h-30.92v-31.18zm32.759 0h31.007v31.18h-31.007v-31.18zm32.846 0h30.92v31.18h-30.92v-31.18zm32.759 0h30.92v31.18h-30.92v-31.18zm32.759 0h30.92v31.18h-30.92v-31.18zm30.92-431.674h-30.92v-31.181h30.92v31.181zm-32.759 0h-30.92v-31.181h30.92v31.181zm-32.759 0h-30.92v-31.181h30.92v31.181zm-32.759 0h-31.007v-31.181h31.007v31.181zm-32.934 0h-30.92v-31.181h30.92v31.181zm-32.759 0h-30.919v-31.181h30.919v31.181zm-32.759 0H526.42v-31.181h30.919v31.181zm-32.759 0h-30.919v-31.181h30.919v31.181zm-32.759 0h-30.919v-31.181h30.919v31.181zm-32.846 0h-30.92v-31.181h30.92v31.181zm-32.759 0h-30.919v-31.181h30.919v31.181zm-32.759 0H362.45v-31.181h31.007v31.181zm-32.846 0h-30.92v-31.181h30.92v31.181zm-32.759 0h-30.92v-31.181h30.92v31.181zm428.055 462.854v-31.18h30.92v31.18h-30.92zm0-33.035v-31.181h30.92v31.181h-30.92zm0-33.036v-31.181h30.92v31.181h-30.92zm0-33.036v-31.269h30.92v31.269h-30.92zm0-33.212v-31.181h30.92v31.181h-30.92zm0-33.036v-31.181h30.92v31.181h-30.92zm0-33.036v-31.181h30.92v31.181h-30.92zm0-33.036v-31.181h30.92v31.181h-30.92zm0-33.036v-31.18h30.92v31.18h-30.92zm0-33.035v-31.181h30.92v31.181h-30.92zm0-33.124v-31.181h30.92v31.181h-30.92zm0-33.036v-31.269h30.92v31.269h-30.92zm0-33.124v-31.181h30.92v31.181h-30.92zm0-33.036v-31.181h30.92v31.181h-30.92zm0-33.036v-31.181h30.92v31.181h-30.92zm-460.814-31.181v31.181h-30.92v-31.181h30.92zm0 33.036v31.181h-30.92v-31.181h30.92zm0 33.036v31.181h-30.92v-31.181h30.92zm0 33.036v31.269h-30.92v-31.269h30.92zm0 33.212v31.181h-30.92v-31.181h30.92zm0 33.036v31.181h-30.92v-31.181h30.92zm0 33.036v31.18h-30.92v-31.18h30.92zm0 33.035v31.181h-30.92v-31.181h30.92zm0 33.036v31.181h-30.92v-31.181h30.92zm0 33.036v31.181h-30.92v-31.181h30.92zm0 33.124v31.181h-30.92v-31.181h30.92zm0 33.036v31.269h-30.92v-31.269h30.92zm0 33.124v31.181h-30.92v-31.181h30.92zm0 33.036v31.181h-30.92v-31.181h30.92zm0 33.036v31.18h-30.92v-31.18h30.92zm0 33.035v31.181h-30.92v-31.181h30.92zm1.839 0h30.92v31.181h-30.92v-31.181zm32.759 0h30.92v31.181h-30.92v-31.181zm32.759 0h31.007v31.181H362.45v-31.181zm32.934 0h30.92v31.181h-30.92v-31.181zm32.759 0h30.832v31.181h-30.92v-31.181h.088zm32.759 0h30.919v31.181h-30.919v-31.181zm32.759 0h30.919v31.181h-30.919v-31.181zm32.759 0h30.919v31.181H526.42v-31.181zm32.759 0h30.919v31.181h-30.919v-31.181zm32.846 0h30.92v31.181h-30.92v-31.181zm32.759 0h31.007v31.181h-31.007v-31.181zm32.846 0h30.92v31.181h-30.92v-31.181zm32.759 0h30.92v31.181h-30.92v-31.181zm32.759 0h30.92v31.181h-30.92v-31.181zm32.759 0h30.92v31.181h-30.92v-31.181zm30.92-497.833h-30.92v-31.181h30.92v31.181zm-32.759 0h-30.92v-31.181h30.92v31.181zm-32.759 0h-30.92v-31.181h30.92v31.181zm-32.759 0h-30.92v-31.181h30.92v31.181zm-32.759 0h-31.007v-31.181h31.007v31.181zm-32.934 0h-30.92v-31.181h30.92v31.181zm-32.759 0h-30.919v-31.181h30.919v31.181zm-32.759 0H526.42v-31.181h30.919v31.181zm-32.759 0h-30.919v-31.181h30.919v31.181zm-32.759 0h-30.919v-31.181h30.919v31.181zm-32.846 0h-30.92v-31.181h30.92v31.181zm-32.759 0h-30.919v-31.181h30.919v31.181zm-32.759 0H362.45v-31.181h31.007v31.181zm-32.846 0h-30.92v-31.181h30.92v31.181zm-32.759 0h-30.92v-31.181h30.92v31.181zm-32.759 0h-30.92v-31.181h30.92v31.181zm493.661 529.014v-31.181h30.919v31.181h-30.919zm0-33.036v-31.18h30.919v31.18h-30.919zm0-33.035v-31.181h30.919v31.181h-30.919zm0-33.036v-31.181h30.919v31.181h-30.919zm0-33.036v-31.269h30.919v31.269h-30.919zm0-33.212v-31.181h30.919v31.181h-30.919zm0-33.036v-31.181h30.919v31.181h-30.919zm0-33.036v-31.181h30.919v31.181h-30.919zm0-33.036v-31.181h30.919v31.181h-30.919zm0-33.036v-31.18h30.919v31.18h-30.919zm0-33.035v-31.181h30.919v31.181h-30.919zm0-33.124v-31.181h30.919v31.181h-30.919zm0-33.036v-31.269h30.919v31.269h-30.919zm0-33.124v-31.181h30.919v31.181h-30.919zm0-33.036v-31.181h30.919v31.181h-30.919zm0-33.036v-31.181h30.919v31.181h-30.919zm0-33.124v-31.181h30.919v31.181h-30.919zM262.246 233.37v31.181h-30.919V233.37h30.919zm0 33.036v31.181h-30.919v-31.181h30.919zm0 33.036v31.181h-30.919v-31.181h30.919zm0 33.036v31.181h-30.919v-31.181h30.919zm0 33.036v31.269h-30.919v-31.269h30.919zm0 33.212v31.181h-30.919v-31.181h30.919zm0 33.036v31.181h-30.919v-31.181h30.919zm0 33.036v31.18h-30.919v-31.18h30.919zm0 33.035v31.181h-30.919v-31.181h30.919zm0 33.036v31.181h-30.919v-31.181h30.919zm0 33.036v31.181h-30.919v-31.181h30.919zm0 33.124v31.181h-30.919v-31.181h30.919zm0 33.036v31.269h-30.919v-31.269h30.919zm0 33.124v31.181h-30.919v-31.181h30.919zm0 33.036v31.181h-30.919v-31.181h30.919zm0 33.036v31.18h-30.919v-31.18h30.919zm0 33.035v31.181h-30.919v-31.181h30.919zm0 33.124v31.181h-30.919V795.42h30.919zm1.927 0h30.92v31.181h-30.92V795.42zm32.759 0h30.92v31.181h-30.92V795.42zm32.759 0h30.92v31.181h-30.92V795.42zm32.759 0h31.007v31.181H362.45V795.42zm32.934 0h30.92v31.181h-30.92V795.42zm32.759 0h30.832v31.181h-30.92V795.42h.088zm32.759 0h30.919v31.181h-30.919V795.42zm32.759 0h30.919v31.181h-30.919V795.42zm32.759 0h30.919v31.181H526.42V795.42zm32.759 0h30.919v31.181h-30.919V795.42zm32.846 0h30.92v31.181h-30.92V795.42zm32.759 0h31.007v31.181h-31.007V795.42zm32.846 0h30.92v31.181h-30.92V795.42zm32.759 0h30.92v31.181h-30.92V795.42zm32.759 0h30.92v31.181h-30.92V795.42zm32.759 0h30.92v31.181h-30.92V795.42zm32.847 0h30.919v31.181h-30.919V795.42zm30.832-563.993h-30.92v-31.181h30.92v31.181zm-32.759 0h-30.92v-31.181h30.92v31.181zm-32.759 0h-30.92v-31.181h30.92v31.181zm-32.759 0h-30.92v-31.181h30.92v31.181zm-32.759 0h-30.92v-31.181h30.92v31.181zm-32.759 0h-31.007v-31.181h31.007v31.181zm-32.934 0h-30.92v-31.181h30.92v31.181zm-32.759 0h-30.919v-31.181h30.919v31.181zm-32.759 0H526.42v-31.181h30.919v31.181zm-32.759 0h-30.919v-31.181h30.919v31.181zm-32.759 0h-30.919v-31.181h30.919v31.181zm-32.846 0h-30.92v-31.181h30.92v31.181zm-32.759 0h-30.919v-31.181h30.919v31.181zm-32.759 0H362.45v-31.181h31.007v31.181zm-32.846 0h-30.92v-31.181h30.92v31.181zm-32.759 0h-30.92v-31.181h30.92v31.181zm-32.759 0h-30.92v-31.181h30.92v31.181zm-32.847 0h-30.919v-31.181h30.919v31.181zm559.267 595.086v-31.181h30.919v31.181h-30.919zm0-33.036v-31.181h30.919v31.181h-30.919zm0-33.036v-31.18h30.919v31.18h-30.919zm0-33.035v-31.181h30.919v31.181h-30.919zm0-33.036v-31.181h30.919v31.181h-30.919zm0-33.036v-31.269h30.919v31.269h-30.919zm0-33.212v-31.181h30.919v31.181h-30.919zm0-33.036v-31.181h30.919v31.181h-30.919zm0-33.036v-31.181h30.919v31.181h-30.919zm0-33.036v-31.181h30.919v31.181h-30.919zm0-33.036v-31.18h30.919v31.18h-30.919zm0-33.035v-31.181h30.919v31.181h-30.919zm0-33.124v-31.181h30.919v31.181h-30.919zm0-33.036v-31.269h30.919v31.269h-30.919zm0-33.124v-31.181h30.919v31.181h-30.919zm0-33.036v-31.181h30.919v31.181h-30.919zm0-33.036v-31.181h30.919v31.181h-30.919zm0-33.124v-31.181h30.919v31.181h-30.919zm0-33.036v-31.181h30.919v31.181h-30.919zm-592.026-31.181v31.181h-30.919v-31.181h30.919zm0 33.124v31.181h-30.919V233.37h30.919zm0 33.036v31.181h-30.919v-31.181h30.919zm0 33.036v31.181h-30.919v-31.181h30.919zm0 33.036v31.181h-30.919v-31.181h30.919zm0 33.036v31.269h-30.919v-31.269h30.919zm0 33.212v31.181h-30.919v-31.181h30.919zm0 33.036v31.181h-30.919v-31.181h30.919zm0 33.036v31.18h-30.919v-31.18h30.919zm0 33.035v31.181h-30.919v-31.181h30.919zm0 33.036v31.181h-30.919v-31.181h30.919zm0 33.036v31.181h-30.919v-31.181h30.919zm0 33.124v31.181h-30.919v-31.181h30.919zm0 33.036v31.269h-30.919v-31.269h30.919zm0 33.124v31.181h-30.919v-31.181h30.919zm0 33.036v31.181h-30.919v-31.181h30.919zm0 33.036v31.18h-30.919v-31.18h30.919zm0 33.035v31.181h-30.919v-31.181h30.919zm0 33.124v31.181h-30.919V795.42h30.919zm0 33.036v31.181h-30.919v-31.181h30.919zm1.927 0h30.92v31.181h-30.92v-31.181zm32.759 0h30.92v31.181h-30.92v-31.181zm32.759 0h30.92v31.181h-30.92v-31.181zm32.759 0h30.92v31.181h-30.92v-31.181zm32.759 0h31.007v31.181H362.45v-31.181zm32.934 0h30.92v31.181h-30.92v-31.181zm32.759 0h30.832v31.181h-30.92v-31.181h.088zm32.759 0h30.919v31.181h-30.919v-31.181zm32.759 0h30.919v31.181h-30.919v-31.181zm32.759 0h30.919v31.181H526.42v-31.181zm32.759 0h30.919v31.181h-30.919v-31.181zm32.846 0h30.92v31.181h-30.92v-31.181zm32.759 0h31.007v31.181h-31.007v-31.181zm32.846 0h30.92v31.181h-30.92v-31.181zm32.759 0h30.92v31.181h-30.92v-31.181zm32.759 0h30.92v31.181h-30.92v-31.181zm32.759 0h30.92v31.181h-30.92v-31.181zm32.847 0h30.919v31.181h-30.919v-31.181zm32.759 0h30.919v31.181h-30.919v-31.181zm30.919-630.065h-30.919v-31.18h30.919v31.18zm-32.846 0h-30.92v-31.18h30.92v31.18zm-32.759 0h-30.92v-31.18h30.92v31.18zm-32.759 0h-30.92v-31.18h30.92v31.18zm-32.759 0h-30.92v-31.18h30.92v31.18zm-32.759 0h-30.92v-31.18h30.92v31.18zm-32.759 0h-31.007v-31.18h31.007v31.18zm-32.934 0h-30.92v-31.18h30.92v31.18zm-32.759 0h-30.919v-31.18h30.919v31.18zm-32.759 0H526.42v-31.18h30.919v31.18zm-32.759 0h-30.919v-31.18h30.919v31.18zm-32.759 0h-30.919v-31.18h30.919v31.18zm-32.846 0h-30.92v-31.18h30.92v31.18zm-32.759 0h-30.919v-31.18h30.919v31.18zm-32.759 0H362.45v-31.18h31.007v31.18zm-32.846 0h-30.92v-31.18h30.92v31.18zm-32.759 0h-30.92v-31.18h30.92v31.18zm-32.759 0h-30.92v-31.18h30.92v31.18zm-32.847 0h-30.919v-31.18h30.919v31.18zm-32.759 0h-30.919v-31.18h30.919v31.18zm624.784 661.246v-31.181h30.92v31.181h-30.92zm0-33.124v-31.181h30.92v31.181h-30.92zm0-33.036v-31.181h30.92v31.181h-30.92zm0-33.036v-31.18h30.92v31.18h-30.92zm0-33.035v-31.181h30.92v31.181h-30.92zm0-33.036v-31.181h30.92v31.181h-30.92zm0-33.036v-31.269h30.92v31.269h-30.92zm0-33.212v-31.181h30.92v31.181h-30.92zm0-33.036v-31.181h30.92v31.181h-30.92zm0-33.036v-31.181h30.92v31.181h-30.92zm0-33.036v-31.181h30.92v31.181h-30.92zm0-33.036v-31.18h30.92v31.18h-30.92zm0-33.035v-31.181h30.92v31.181h-30.92zm0-33.124v-31.181h30.92v31.181h-30.92zm0-33.036v-31.269h30.92v31.269h-30.92zm0-33.124v-31.181h30.92v31.181h-30.92zm0-33.036v-31.181h30.92v31.181h-30.92zm0-33.036v-31.181h30.92v31.181h-30.92zm0-33.124v-31.181h30.92v31.181h-30.92zm0-33.036v-31.181h30.92v31.181h-30.92zm0-33.036v-31.18h30.92v31.18h-30.92zm-657.542-31.18v31.18h-30.92v-31.18h30.92zm0 33.035v31.181h-30.92v-31.181h30.92zm0 33.124v31.181h-30.92V233.37h30.92zm0 33.036v31.181h-30.92v-31.181h30.92zm0 33.036v31.181h-30.92v-31.181h30.92zm0 33.036v31.181h-30.92v-31.181h30.92zm0 33.036v31.269h-30.92v-31.269h30.92zm0 33.212v31.181h-30.92v-31.181h30.92zm0 33.036v31.181h-30.92v-31.181h30.92zm0 33.036v31.18h-30.92v-31.18h30.92zm0 33.035v31.181h-30.92v-31.181h30.92zm0 33.036v31.181h-30.92v-31.181h30.92zm0 33.036v31.181h-30.92v-31.181h30.92zm0 33.124v31.181h-30.92v-31.181h30.92zm0 33.036v31.269h-30.92v-31.269h30.92zm0 33.124v31.181h-30.92v-31.181h30.92zm0 33.036v31.181h-30.92v-31.181h30.92zm0 33.036v31.18h-30.92v-31.18h30.92zm0 33.035v31.181h-30.92v-31.181h30.92zm0 33.124v31.181h-30.92V795.42h30.92zm0 33.036v31.181h-30.92v-31.181h30.92zm0 33.036v31.181h-30.92v-31.181h30.92zm1.839 0h30.919v31.181h-30.919v-31.181zm32.846 0h30.92v31.181h-30.92v-31.181zm32.759 0h30.92v31.181h-30.92v-31.181zm32.759 0h30.92v31.181h-30.92v-31.181zm32.759 0h30.92v31.181h-30.92v-31.181zm32.759 0h31.007v31.181H362.45v-31.181zm32.934 0h30.92v31.181h-30.92v-31.181zm32.759 0h30.832v31.181h-30.92v-31.181h.088zm32.759 0h30.919v31.181h-30.919v-31.181zm32.759 0h30.919v31.181h-30.919v-31.181zm32.759 0h30.919v31.181H526.42v-31.181zm32.759 0h30.919v31.181h-30.919v-31.181zm32.846 0h30.92v31.181h-30.92v-31.181zm32.759 0h31.007v31.181h-31.007v-31.181zm32.846 0h30.92v31.181h-30.92v-31.181zm32.759 0h30.92v31.181h-30.92v-31.181zm32.759 0h30.92v31.181h-30.92v-31.181zm32.759 0h30.92v31.181h-30.92v-31.181zm32.847 0h30.919v31.181h-30.919v-31.181zm32.759 0h30.919v31.181h-30.919v-31.181zm32.758 0h30.92v31.181h-30.92v-31.181zm30.92-696.136h-30.92v-31.181h30.92v31.181zm-32.759 0h-30.919v-31.181h30.919v31.181zm-32.846 0h-30.92v-31.181h30.92v31.181zm-32.759 0h-30.92v-31.181h30.92v31.181zm-32.759 0h-30.92v-31.181h30.92v31.181zm-32.759 0h-30.92v-31.181h30.92v31.181zm-32.759 0h-30.92v-31.181h30.92v31.181zm-32.759 0h-31.007v-31.181h31.007v31.181zm-32.934 0h-30.92v-31.181h30.92v31.181zm-32.759 0h-30.919v-31.181h30.919v31.181zm-32.759 0H526.42v-31.181h30.919v31.181zm-32.759 0h-30.919v-31.181h30.919v31.181zm-32.759 0h-30.919v-31.181h30.919v31.181zm-32.846 0h-30.92v-31.181h30.92v31.181zm-32.759 0h-30.919v-31.181h30.919v31.181zm-32.759 0H362.45v-31.181h31.007v31.181zm-32.846 0h-30.92v-31.181h30.92v31.181zm-32.759 0h-30.92v-31.181h30.92v31.181zm-32.759 0h-30.92v-31.181h30.92v31.181zm-32.847 0h-30.919v-31.181h30.919v31.181zm-32.759 0h-30.919v-31.181h30.919v31.181zm-32.758 0h-30.92v-31.181h30.92v31.181zM887.03 892.673v-31.181h31.007v31.181H887.03zm0-33.036v-31.181h31.007v31.181H887.03zm0-33.124v-31.181h31.007v31.181H887.03zm0-33.036v-31.181h31.007v31.181H887.03zm0-33.036v-31.18h31.007v31.18H887.03zm0-33.035v-31.181h31.007v31.181H887.03zm0-33.036v-31.181h31.007v31.181H887.03zm0-33.036v-31.269h31.007v31.269H887.03zm0-33.212v-31.181h31.007v31.181H887.03zm0-33.036v-31.181h31.007v31.181H887.03zm0-33.036v-31.181h31.007v31.181H887.03zm0-33.036v-31.181h31.007v31.181H887.03zm0-33.036v-31.18h31.007v31.18H887.03zm0-33.035v-31.181h31.007v31.181H887.03zm0-33.124v-31.181h31.007v31.181H887.03zm0-33.036v-31.269h31.007v31.269H887.03zm0-33.124v-31.181h31.007v31.181H887.03zm0-33.036v-31.181h31.007v31.181H887.03zm0-33.036v-31.181h31.007v31.181H887.03zm0-33.124v-31.181h31.007v31.181H887.03zm0-33.036v-31.181h31.007v31.181H887.03zm0-33.036v-31.18h31.007v31.18H887.03zm0-33.035v-31.181h31.007v31.181H887.03zm-723.06-31.181v31.181h-30.92v-31.181h30.92zm0 33.036v31.18h-30.92v-31.18h30.92zm0 33.035v31.181h-30.92v-31.181h30.92zm0 33.124v31.181h-30.92V233.37h30.92zm0 33.036v31.181h-30.92v-31.181h30.92zm0 33.036v31.181h-30.92v-31.181h30.92zm0 33.036v31.181h-30.92v-31.181h30.92zm0 33.036v31.269h-30.92v-31.269h30.92zm0 33.212v31.181h-30.92v-31.181h30.92zm0 33.036v31.181h-30.92v-31.181h30.92zm0 33.036v31.18h-30.92v-31.18h30.92zm0 33.035v31.181h-30.92v-31.181h30.92zm0 33.036v31.181h-30.92v-31.181h30.92zm0 33.036v31.181h-30.92v-31.181h30.92zm0 33.124v31.181h-30.92v-31.181h30.92zm0 33.036v31.269h-30.92v-31.269h30.92zm0 33.124v31.181h-30.92v-31.181h30.92zm0 33.036v31.181h-30.92v-31.181h30.92zm0 33.036v31.18h-30.92v-31.18h30.92zm0 33.035v31.181h-30.92v-31.181h30.92zm0 33.124v31.181h-30.92V795.42h30.92zm0 33.036v31.181h-30.92v-31.181h30.92zm0 33.036v31.181h-30.92v-31.181h30.92zm0 33.036v31.269h-30.92v-31.269h30.92zm1.839 0h30.92v31.269h-30.92v-31.269zm32.759 0h30.919v31.269h-30.919v-31.269zm32.846 0h30.92v31.269h-30.92v-31.269zm32.759 0h30.92v31.269h-30.92v-31.269zm32.759 0h30.92v31.269h-30.92v-31.269zm32.759 0h30.92v31.269h-30.92v-31.269zm32.759 0h31.007v31.269H362.45v-31.269zm32.934 0h30.92v31.269h-30.92v-31.269zm32.759 0h30.832v31.269h-30.92v-31.269h.088zm32.759 0h30.919v31.269h-30.919v-31.269zm32.759 0h30.919v31.269h-30.919v-31.269zm32.759 0h30.919v31.269H526.42v-31.269zm32.759 0h30.919v31.269h-30.919v-31.269zm32.846 0h30.92v31.269h-30.92v-31.269zm32.759 0h31.007v31.269h-31.007v-31.269zm32.846 0h30.92v31.269h-30.92v-31.269zm32.759 0h30.92v31.269h-30.92v-31.269zm32.759 0h30.92v31.269h-30.92v-31.269zm32.759 0h30.92v31.269h-30.92v-31.269zm32.847 0h30.919v31.269h-30.919v-31.269zm32.759 0h30.919v31.269h-30.919v-31.269zm32.758 0h30.92v31.269h-30.92v-31.269zm32.759 0h31.007v31.269H887.03v-31.269zm31.007-762.208H887.03v-31.269h31.007v31.269zm-32.846 0h-30.92v-31.269h30.92v31.269zm-32.759 0h-30.919v-31.269h30.919v31.269zm-32.846 0h-30.92v-31.269h30.92v31.269zm-32.759 0h-30.92v-31.269h30.92v31.269zm-32.759 0h-30.92v-31.269h30.92v31.269zm-32.759 0h-30.92v-31.269h30.92v31.269zm-32.759 0h-30.92v-31.269h30.92v31.269zm-32.759 0h-31.007v-31.269h31.007v31.269zm-32.934 0h-30.92v-31.269h30.92v31.269zm-32.759 0h-30.919v-31.269h30.919v31.269zm-32.759 0H526.42v-31.269h30.919v31.269zm-32.759 0h-30.919v-31.269h30.919v31.269zm-32.759 0h-30.919v-31.269h30.919v31.269zm-32.846 0h-30.92v-31.269h30.92v31.269zm-32.759 0h-30.919v-31.269h30.919v31.269zm-32.759 0H362.45v-31.269h31.007v31.269zm-32.846 0h-30.92v-31.269h30.92v31.269zm-32.759 0h-30.92v-31.269h30.92v31.269zm-32.759 0h-30.92v-31.269h30.92v31.269zm-32.847 0h-30.919v-31.269h30.919v31.269zm-32.759 0h-30.919v-31.269h30.919v31.269zm-32.758 0h-30.92v-31.269h30.92v31.269zm-32.759 0h-30.92v-31.269h30.92v31.269zm755.907 793.477v-31.269h30.919v31.269h-30.919zm0-33.124v-31.181h30.919v31.181h-30.919zm0-33.036v-31.181h30.919v31.181h-30.919zm0-33.124v-31.181h30.919v31.181h-30.919zm0-33.036v-31.181h30.919v31.181h-30.919zm0-33.036v-31.18h30.919v31.18h-30.919zm0-33.035v-31.181h30.919v31.181h-30.919zm0-33.036v-31.181h30.919v31.181h-30.919zm0-33.036v-31.269h30.919v31.269h-30.919zm0-33.212v-31.181h30.919v31.181h-30.919zm0-33.036v-31.181h30.919v31.181h-30.919zm0-33.036v-31.181h30.919v31.181h-30.919zm0-33.036v-31.181h30.919v31.181h-30.919zm0-33.036v-31.18h30.919v31.18h-30.919zm0-33.035v-31.181h30.919v31.181h-30.919zm0-33.124v-31.181h30.919v31.181h-30.919zm0-33.036v-31.269h30.919v31.269h-30.919zm0-33.124v-31.181h30.919v31.181h-30.919zm0-33.036v-31.181h30.919v31.181h-30.919zm0-33.036v-31.181h30.919v31.181h-30.919zm0-33.124v-31.181h30.919v31.181h-30.919zm0-33.036v-31.181h30.919v31.181h-30.919zm0-33.036v-31.18h30.919v31.18h-30.919zm0-33.035v-31.181h30.919v31.181h-30.919zm0-33.036v-31.269h30.919v31.269h-30.919zm-788.666-31.269v31.269h-31.007v-31.269h31.007zm0 33.124v31.181h-31.007v-31.181h31.007zm0 33.036v31.18h-31.007v-31.18h31.007zm0 33.035v31.181h-31.007v-31.181h31.007zm0 33.124v31.181h-31.007V233.37h31.007zm0 33.036v31.181h-31.007v-31.181h31.007zm0 33.036v31.181h-31.007v-31.181h31.007zm0 33.036v31.181h-31.007v-31.181h31.007zm0 33.036v31.269h-31.007v-31.269h31.007zm0 33.212v31.181h-31.007v-31.181h31.007zm0 33.036v31.181h-31.007v-31.181h31.007zm0 33.036v31.18h-31.007v-31.18h31.007zm0 33.035v31.181h-31.007v-31.181h31.007zm0 33.036v31.181h-31.007v-31.181h31.007zm0 33.036v31.181h-31.007v-31.181h31.007zm0 33.124v31.181h-31.007v-31.181h31.007zm0 33.036v31.269h-31.007v-31.269h31.007zm0 33.124v31.181h-31.007v-31.181h31.007zm0 33.036v31.181h-31.007v-31.181h31.007zm0 33.036v31.18h-31.007v-31.18h31.007zm0 33.035v31.181h-31.007v-31.181h31.007zm0 33.124v31.181h-31.007V795.42h31.007zm0 33.036v31.181h-31.007v-31.181h31.007zm0 33.036v31.181h-31.007v-31.181h31.007zm0 33.036v31.269h-31.007v-31.269h31.007zm0 33.124v31.181h-31.007v-31.181h31.007zm1.839 0h30.92v31.181h-30.92v-31.181zm32.759 0h30.92v31.181h-30.92v-31.181zm32.759 0h30.919v31.181h-30.919v-31.181zm32.846 0h30.92v31.181h-30.92v-31.181zm32.759 0h30.92v31.181h-30.92v-31.181zm32.759 0h30.92v31.181h-30.92v-31.181zm32.759 0h30.92v31.181h-30.92v-31.181zm32.759 0h31.007v31.181H362.45v-31.181zm32.934 0h30.92v31.181h-30.92v-31.181zm32.759 0h30.832v31.181h-30.92v-31.181h.088zm32.759 0h30.919v31.181h-30.919v-31.181zm32.759 0h30.919v31.181h-30.919v-31.181zm32.759 0h30.919v31.181H526.42v-31.181zm32.759 0h30.919v31.181h-30.919v-31.181zm32.846 0h30.92v31.181h-30.92v-31.181zm32.759 0h31.007v31.181h-31.007v-31.181zm32.846 0h30.92v31.181h-30.92v-31.181zm32.759 0h30.92v31.181h-30.92v-31.181zm32.759 0h30.92v31.181h-30.92v-31.181zm32.759 0h30.92v31.181h-30.92v-31.181zm32.847 0h30.919v31.181h-30.919v-31.181zm32.759 0h30.919v31.181h-30.919v-31.181zm32.758 0h30.92v31.181h-30.92v-31.181zm32.759 0h31.007v31.181H887.03v-31.181zm32.847 0h30.919v31.181h-30.919v-31.181zm30.919-828.456h-30.919V68.015h30.919v31.18zm-32.759 0H887.03V68.015h31.007v31.18zm-32.846 0h-30.92V68.015h30.92v31.18zm-32.759 0h-30.919V68.015h30.919v31.18zm-32.846 0h-30.92V68.015h30.92v31.18zm-32.759 0h-30.92V68.015h30.92v31.18zm-32.759 0h-30.92V68.015h30.92v31.18zm-32.759 0h-30.92V68.015h30.92v31.18zm-32.759 0h-30.92V68.015h30.92v31.18zm-32.759 0h-31.007V68.015h31.007v31.18zm-32.934 0h-30.92V68.015h30.92v31.18zm-32.759 0h-30.919V68.015h30.919v31.18zm-32.759 0H526.42V68.015h30.919v31.18zm-32.759 0h-30.919V68.015h30.919v31.18zm-32.759 0h-30.919V68.015h30.919v31.18zm-32.846 0h-30.92V68.015h30.92v31.18zm-32.759 0h-30.919V68.015h30.919v31.18zm-32.759 0H362.45V68.015h31.007v31.18zm-32.846 0h-30.92V68.015h30.92v31.18zm-32.759 0h-30.92V68.015h30.92v31.18zm-32.759 0h-30.92V68.015h30.92v31.18zm-32.847 0h-30.919V68.015h30.919v31.18zm-32.759 0h-30.919V68.015h30.919v31.18zm-32.758 0h-30.92V68.015h30.92v31.18zm-32.759 0h-30.92V68.015h30.92v31.18zm-32.759 0h-31.007V68.015h31.007v31.18zm821.512 859.637v-31.181h30.92v31.181h-30.92zm0-33.036v-31.269h30.92v31.269h-30.92zm0-33.124v-31.181h30.92v31.181h-30.92zm0-33.036v-31.181h30.92v31.181h-30.92zm0-33.124v-31.181h30.92v31.181h-30.92zm0-33.036v-31.181h30.92v31.181h-30.92zm0-33.036v-31.18h30.92v31.18h-30.92zm0-33.035v-31.181h30.92v31.181h-30.92zm0-33.036v-31.181h30.92v31.181h-30.92zm0-33.036v-31.269h30.92v31.269h-30.92zm0-33.212v-31.181h30.92v31.181h-30.92zm0-33.036v-31.181h30.92v31.181h-30.92zm0-33.036v-31.181h30.92v31.181h-30.92zm0-33.036v-31.181h30.92v31.181h-30.92zm0-33.036v-31.18h30.92v31.18h-30.92zm0-33.035v-31.181h30.92v31.181h-30.92zm0-33.124v-31.181h30.92v31.181h-30.92zm0-33.036v-31.269h30.92v31.269h-30.92zm0-33.124v-31.181h30.92v31.181h-30.92zm0-33.036v-31.181h30.92v31.181h-30.92zm0-33.036v-31.181h30.92v31.181h-30.92zm0-33.124v-31.181h30.92v31.181h-30.92zm0-33.036v-31.181h30.92v31.181h-30.92zm0-33.036v-31.18h30.92v31.18h-30.92zm0-33.035v-31.181h30.92v31.181h-30.92zm0-33.036v-31.269h30.92v31.269h-30.92zm0-33.124V68.015h30.92v31.18h-30.92zM98.277 68.015v31.18H67.445v-31.18h30.832zm0 33.036v31.269H67.445v-31.269h30.832zm0 33.124v31.181H67.445v-31.181h30.832zm0 33.036v31.18H67.445v-31.18h30.832zm0 33.035v31.181H67.445v-31.181h30.832zm0 33.124v31.181H67.445V233.37h30.832zm0 33.036v31.181H67.445v-31.181h30.832zm0 33.036v31.181H67.445v-31.181h30.832zm0 33.036v31.181H67.445v-31.181h30.832zm0 33.036v31.269H67.445v-31.269h30.832zm0 33.212v31.181H67.445v-31.181h30.832zm0 33.036v31.181H67.445v-31.181h30.832zm0 33.036v31.18H67.445v-31.18h30.832zm0 33.035v31.181H67.445v-31.181h30.832zm0 33.036v31.181H67.445v-31.181h30.832zm0 33.036v31.181H67.445v-31.181h30.832zm0 33.124v31.181H67.445v-31.181h30.832zm0 33.036v31.269H67.445v-31.269h30.832zm0 33.124v31.181H67.445v-31.181h30.832zm0 33.036v31.181H67.445v-31.181h30.832zm0 33.036v31.18H67.445v-31.18h30.832zm0 33.035v31.181H67.445v-31.181h30.832zm0 33.124v31.181H67.445V795.42h30.832zm0 33.036v31.181H67.445v-31.181h30.832zm0 33.036v31.181H67.445v-31.181h30.832zm0 33.036v31.269H67.445v-31.269h30.832zm0 33.124v31.181H67.445v-31.181h30.832zm0 33.124v31.181H67.445v-31.181h30.832zm1.927 0h31.007v31.181h-31.007v-31.181zm32.846 0h30.92v31.181h-30.92v-31.181zm32.759 0h30.92v31.181h-30.92v-31.181zm32.759 0h30.919v31.181h-30.919v-31.181zm32.846 0h30.92v31.181h-30.92v-31.181zm32.759 0h30.92v31.181h-30.92v-31.181zm32.759 0h30.92v31.181h-30.92v-31.181zm32.759 0h30.92v31.181h-30.92v-31.181zm32.759 0h31.007v31.181H362.45v-31.181zm32.934 0h30.92v31.181h-30.92v-31.181zm32.759 0h30.832v31.181h-30.92v-31.181h.088zm32.759 0h30.919v31.181h-30.919v-31.181zm32.759 0h30.919v31.181h-30.919v-31.181zm32.759 0h30.919v31.181H526.42v-31.181zm32.759 0h30.919v31.181h-30.919v-31.181zm32.846 0h30.92v31.181h-30.92v-31.181zm32.759 0h31.007v31.181h-31.007v-31.181zm32.846 0h30.92v31.181h-30.92v-31.181zm32.759 0h30.92v31.181h-30.92v-31.181zm32.759 0h30.92v31.181h-30.92v-31.181zm32.759 0h30.92v31.181h-30.92v-31.181zm32.847 0h30.919v31.181h-30.919v-31.181zm32.759 0h30.919v31.181h-30.919v-31.181zm32.758 0h30.92v31.181h-30.92v-31.181zm32.759 0h31.007v31.181H887.03v-31.181zm32.847 0h30.919v31.181h-30.919v-31.181zm32.846 0h30.92v31.181h-30.92v-31.181zm30.832-894.704h-30.919V34.979h30.919v31.093zm-32.759 0h-30.919V34.979h30.919v31.093zm-32.759 0H887.03V34.979h31.007v31.093zm-32.846 0h-30.92V34.979h30.92v31.093zm-32.759 0h-30.919V34.979h30.919v31.093zm-32.846 0h-30.92V34.979h30.92v31.093zm-32.759 0h-30.92V34.979h30.92v31.093zm-32.759 0h-30.92V34.979h30.92v31.093zm-32.759 0h-30.92V34.979h30.92v31.093zm-32.759 0h-30.92V34.979h30.92v31.093zm-32.759 0h-31.007V34.979h31.007v31.093zm-32.934 0h-30.92V34.979h30.92v31.093zm-32.759 0h-30.919V34.979h30.919v31.093zm-32.759 0H526.42V34.979h30.919v31.093zm-32.759 0h-30.919V34.979h30.919v31.093zm-32.759 0h-30.919V34.979h30.919v31.093zm-32.846 0h-30.92V34.979h30.92v31.093zm-32.759 0h-30.919V34.979h30.919v31.093zm-32.759 0H362.45V34.979h31.007v31.093zm-32.846 0h-30.92V34.979h30.92v31.093zm-32.759 0h-30.92V34.979h30.92v31.093zm-32.759 0h-30.92V34.979h30.92v31.093zm-32.847 0h-30.919V34.979h30.919v31.093zm-32.759 0h-30.919V34.979h30.919v31.093zm-32.758 0h-30.92V34.979h30.92v31.093zm-32.759 0h-30.92V34.979h30.92v31.093zm-32.759 0h-31.007V34.979h31.007v31.093zm-32.934 0H67.445V34.979h30.92v31.093h-.088zm887.205 925.797v-31.181h30.918v31.181h-30.918zm0-33.036v-31.181h30.918v31.181h-30.918zm0-33.036v-31.269h30.918v31.269h-30.918zm0-33.124v-31.181h30.918v31.181h-30.918zm0-33.036v-31.181h30.918v31.181h-30.918zm0-33.124v-31.181h30.918v31.181h-30.918zm0-33.036v-31.181h30.918v31.181h-30.918zm0-33.036v-31.18h30.918v31.18h-30.918zm0-33.035v-31.181h30.918v31.181h-30.918zm0-33.036v-31.181h30.918v31.181h-30.918zm0-33.036v-31.269h30.918v31.269h-30.918zm0-33.212v-31.181h30.918v31.181h-30.918zm0-33.036v-31.181h30.918v31.181h-30.918zm0-33.036v-31.181h30.918v31.181h-30.918zm0-33.036v-31.181h30.918v31.181h-30.918zm0-33.036v-31.18h30.918v31.18h-30.918zm0-33.035v-31.181h30.918v31.181h-30.918zm0-33.124v-31.181h30.918v31.181h-30.918zm0-33.036v-31.269h30.918v31.269h-30.918zm0-33.124v-31.181h30.918v31.181h-30.918zm0-33.036v-31.181h30.918v31.181h-30.918zm0-33.036v-31.181h30.918v31.181h-30.918zm0-33.124v-31.181h30.918v31.181h-30.918zm0-33.036v-31.181h30.918v31.181h-30.918zm0-33.036v-31.18h30.918v31.18h-30.918zm0-33.035v-31.181h30.918v31.181h-30.918zm0-33.036v-31.269h30.918v31.269h-30.918zm0-33.124V68.015h30.918v31.18h-30.918zm0-33.124V34.979h30.918v31.18h-30.918v-.087zM65.518 34.979v31.18H34.686V34.98h30.832zm0 33.036v31.18H34.686v-31.18h30.832zm0 33.036v31.269H34.686v-31.269h30.832zm0 33.124v31.181H34.686v-31.181h30.832zm0 33.036v31.18H34.686v-31.18h30.832zm0 33.035v31.181H34.686v-31.181h30.832zm0 33.124v31.181H34.686V233.37h30.832zm0 33.036v31.181H34.686v-31.181h30.832zm0 33.036v31.181H34.686v-31.181h30.832zm0 33.036v31.181H34.686v-31.181h30.832zm0 33.036v31.269H34.686v-31.269h30.832zm0 33.212v31.181H34.686v-31.181h30.832zm0 33.036v31.181H34.686v-31.181h30.832zm0 33.036v31.18H34.686v-31.18h30.832zm0 33.035v31.181H34.686v-31.181h30.832zm0 33.036v31.181H34.686v-31.181h30.832zm0 33.036v31.181H34.686v-31.181h30.832zm0 33.124v31.181H34.686v-31.181h30.832zm0 33.036v31.269H34.686v-31.269h30.832zm0 33.124v31.181H34.686v-31.181h30.832zm0 33.036v31.181H34.686v-31.181h30.832zm0 33.036v31.18H34.686v-31.18h30.832zm0 33.035v31.181H34.686v-31.181h30.832zm0 33.124v31.181H34.686V795.42h30.832zm0 33.036v31.181H34.686v-31.181h30.832zm0 33.036v31.181H34.686v-31.181h30.832zm0 33.036v31.269H34.686v-31.269h30.832zm0 33.124v31.181H34.686v-31.181h30.832zm0 33.124v31.181H34.686v-31.181h30.832zm0 33.036v31.178H34.686v-31.178h30.832zm1.927 0h30.92v31.178h-30.92v-31.178zm32.759 0h31.007v31.178h-31.007v-31.178zm32.846 0h30.92v31.178h-30.92v-31.178zm32.759 0h30.92v31.178h-30.92v-31.178zm32.759 0h30.919v31.178h-30.919v-31.178zm32.846 0h30.92v31.178h-30.92v-31.178zm32.759 0h30.92v31.178h-30.92v-31.178zm32.759 0h30.92v31.178h-30.92v-31.178zm32.759 0h30.92v31.178h-30.92v-31.178zm32.759 0h31.007v31.178H362.45v-31.178zm32.934 0h30.92v31.178h-30.92v-31.178zm32.759 0h30.832v31.178h-30.92v-31.178h.088zm32.759 0h30.919v31.178h-30.919v-31.178zm32.759 0h30.919v31.178h-30.919v-31.178zm32.759 0h30.919v31.178H526.42v-31.178zm32.759 0h30.919v31.178h-30.919v-31.178zm32.846 0h30.92v31.178h-30.92v-31.178zm32.759 0h31.007v31.178h-31.007v-31.178zm32.846 0h30.92v31.178h-30.92v-31.178zm32.759 0h30.92v31.178h-30.92v-31.178zm32.759 0h30.92v31.178h-30.92v-31.178zm32.759 0h30.92v31.178h-30.92v-31.178zm32.847 0h30.919v31.178h-30.919v-31.178zm32.759 0h30.919v31.178h-30.919v-31.178zm32.758 0h30.92v31.178h-30.92v-31.178zm32.759 0h31.007v31.178H887.03v-31.178zm32.847 0h30.919v31.178h-30.919v-31.178zm32.846 0h30.92v31.178h-30.92v-31.178zm32.759 0h30.918v31.178h-30.918v-31.178zm30.828-960.776h-30.915V1.855h30.915v31.18zm-32.755 0h-30.919V1.855h30.919v31.18zm-32.759 0h-30.919V1.855h30.919v31.18zm-32.759 0H887.03V1.855h31.007v31.18zm-32.846 0h-30.92V1.855h30.92v31.18zm-32.759 0h-30.919V1.855h30.919v31.18zm-32.846 0h-30.92V1.855h30.92v31.18zm-32.759 0h-30.92V1.855h30.92v31.18zm-32.759 0h-30.92V1.855h30.92v31.18zm-32.759 0h-30.92V1.855h30.92v31.18zm-32.759 0h-30.92V1.855h30.92v31.18zm-32.759 0h-31.007V1.855h31.007v31.18zm-32.934 0h-30.92V1.855h30.92v31.18zm-32.759 0h-30.919V1.855h30.919v31.18zm-32.759 0H526.42V1.855h30.919v31.18zm-32.759 0h-30.919V1.855h30.919v31.18zm-32.759 0h-30.919V1.855h30.919v31.18zm-32.846 0h-30.92V1.855h30.92v31.18zm-32.759 0h-30.919V1.855h30.919v31.18zm-32.759 0H362.45V1.855h31.007v31.18zm-32.846 0h-30.92V1.855h30.92v31.18zm-32.759 0h-30.92V1.855h30.92v31.18zm-32.759 0h-30.92V1.855h30.92v31.18zm-32.847 0h-30.919V1.855h30.919v31.18zm-32.759 0h-30.919V1.855h30.919v31.18zm-32.758 0h-30.92V1.855h30.92v31.18zm-32.759 0h-30.92V1.855h30.92v31.18zm-32.759 0h-31.007V1.855h31.007v31.18zm-32.934 0H67.445V1.855h30.92v31.18h-.088zm-32.76 0h-30.83V1.855h30.92v31.18h-.088zM1018.24 1024.9v-31.176h30.92v31.176h-30.92zm0-33.031v-31.181h30.92v31.181h-30.92zm0-33.036v-31.181h30.92v31.181h-30.92zm0-33.036v-31.269h30.92v31.269h-30.92zm0-33.124v-31.181h30.92v31.181h-30.92zm0-33.036v-31.181h30.92v31.181h-30.92zm0-33.124v-31.181h30.92v31.181h-30.92zm0-33.036v-31.181h30.92v31.181h-30.92zm0-33.036v-31.18h30.92v31.18h-30.92zm0-33.035v-31.181h30.92v31.181h-30.92zm0-33.036v-31.181h30.92v31.181h-30.92zm0-33.036v-31.269h30.92v31.269h-30.92zm0-33.212v-31.181h30.92v31.181h-30.92zm0-33.036v-31.181h30.92v31.181h-30.92zm0-33.036v-31.181h30.92v31.181h-30.92zm0-33.036v-31.181h30.92v31.181h-30.92zm0-33.036v-31.18h30.92v31.18h-30.92zm0-33.035v-31.181h30.92v31.181h-30.92zm0-33.124v-31.181h30.92v31.181h-30.92zm0-33.036v-31.269h30.92v31.269h-30.92zm0-33.124v-31.181h30.92v31.181h-30.92zm0-33.036v-31.181h30.92v31.181h-30.92zm0-33.036v-31.181h30.92v31.181h-30.92zm0-33.124v-31.181h30.92v31.181h-30.92zm0-33.036v-31.181h30.92v31.181h-30.92zm0-33.036v-31.18h30.92v31.18h-30.92zm0-33.035v-31.181h30.92v31.181h-30.92zm0-33.036v-31.269h30.92v31.269h-30.92zm0-33.124V68.015h30.92v31.18h-30.92zm0-33.124V34.979h30.92v31.18h-30.92v-.087zm0-33.036V1.855h30.92v31.18h-30.92zM32.759 1.855v31.18H1.839V1.856h30.92zm0 33.124v31.18H1.839V34.98h30.92zm0 33.036v31.18H1.839v-31.18h30.92zm0 33.036v31.269H1.839v-31.269h30.92zm0 33.124v31.181H1.839v-31.181h30.92zm0 33.036v31.18H1.839v-31.18h30.92zm0 33.035v31.181H1.839v-31.181h30.92zm0 33.124v31.181H1.839V233.37h30.92zm0 33.036v31.181H1.839v-31.181h30.92zm0 33.036v31.181H1.839v-31.181h30.92zm0 33.036v31.181H1.839v-31.181h30.92zm0 33.036v31.269H1.839v-31.269h30.92zm0 33.212v31.181H1.839v-31.181h30.92zm0 33.036v31.181H1.839v-31.181h30.92zm0 33.036v31.18H1.839v-31.18h30.92zm0 33.035v31.181H1.839v-31.181h30.92zm0 33.036v31.181H1.839v-31.181h30.92zm0 33.036v31.181H1.839v-31.181h30.92zm0 33.124v31.181H1.839v-31.181h30.92zm0 33.036v31.269H1.839v-31.269h30.92zm0 33.124v31.181H1.839v-31.181h30.92zm0 33.036v31.181H1.839v-31.181h30.92zm0 33.036v31.18H1.839v-31.18h30.92zm0 33.035v31.181H1.839v-31.181h30.92zm0 33.124v31.181H1.839V795.42h30.92zm0 33.036v31.181H1.839v-31.181h30.92zm0 33.036v31.181H1.839v-31.181h30.92zm0 33.036v31.269H1.839v-31.269h30.92zm0 33.124v31.181H1.839v-31.181h30.92zm0 33.124v31.181H1.839v-31.181h30.92zm0 33.036v31.178H1.839v-31.178h30.92zm0 33.038v31.18H1.839v-31.18h30.92zm1.927 0h30.92v31.18h-30.92v-31.18zm32.759 0h30.92v31.18h-30.92v-31.18zm32.759 0h31.007v31.18h-31.007v-31.18zm32.846 0h30.92v31.18h-30.92v-31.18zm32.759 0h30.92v31.18h-30.92v-31.18zm32.759 0h30.919v31.18h-30.919v-31.18zm32.846 0h30.92v31.18h-30.92v-31.18zm32.759 0h30.92v31.18h-30.92v-31.18zm32.759 0h30.92v31.18h-30.92v-31.18zm32.759 0h30.92v31.18h-30.92v-31.18zm32.759 0h31.007v31.18H362.45v-31.18zm32.934 0h30.92v31.18h-30.92v-31.18zm32.759 0h30.832v31.18h-30.92v-31.18h.088zm32.759 0h30.919v31.18h-30.919v-31.18zm32.759 0h30.919v31.18h-30.919v-31.18zm32.759 0h30.919v31.18H526.42v-31.18zm32.759 0h30.919v31.18h-30.919v-31.18zm32.846 0h30.92v31.18h-30.92v-31.18zm32.759 0h31.007v31.18h-31.007v-31.18zm32.846 0h30.92v31.18h-30.92v-31.18zm32.759 0h30.92v31.18h-30.92v-31.18zm32.759 0h30.92v31.18h-30.92v-31.18zm32.759 0h30.92v31.18h-30.92v-31.18zm32.847 0h30.919v31.18h-30.919v-31.18zm32.759 0h30.919v31.18h-30.919v-31.18zm32.758 0h30.92v31.18h-30.92v-31.18zm32.759 0h31.007v31.18H887.03v-31.18zm32.847 0h30.919v31.18h-30.919v-31.18zm32.846 0h30.92v31.18h-30.92v-31.18zm32.759 0h30.918v31.18h-30.918v-31.18zm32.758 0h30.92v31.18h-30.92v-31.18z" fill="url(#paint0_linear)"/><defs><linearGradient id="paint0_linear" x1="827.5" y1="851.638" x2="337.064" y2="488.017" gradientUnits="userSpaceOnUse"><stop stop-color="#C7E3F9"/><stop offset="1" stop-color="#C7E3F9" stop-opacity="0"/></linearGradient></defs></svg>