<svg width="20" height="20" fill="none" xmlns="http://www.w3.org/2000/svg"><path d="M17.2 1H2.8C1.81 1 1 1.81 1 2.8v14.4c0 .99.81 1.8 1.8 1.8h14.4c.99 0 1.8-.81 1.8-1.8V2.8c0-.99-.81-1.8-1.8-1.8zM6.4 16.3H3.7V8.2h2.7v8.1zM5.05 6.67c-.9 0-1.62-.72-1.62-1.62 0-.9.72-1.62 1.62-1.62.9 0 1.62.72 1.62 1.62 0 .9-.72 1.62-1.62 1.62zM16.3 16.3h-2.7v-4.77c0-.72-.63-1.35-1.35-1.35-.72 0-1.35.63-1.35 1.35v4.77H8.2V8.2h2.7v1.08c.45-.72 1.44-1.26 2.25-1.26 1.71 0 3.15 1.44 3.15 3.15v5.13z" fill="#536587"/></svg>