<svg width="22" height="22" fill="none" xmlns="http://www.w3.org/2000/svg"><g clip-path="url(#clip0)"><path d="M11.858 17.111l9.79-9.79c.227-.226.352-.529.352-.85 0-.323-.125-.625-.352-.852l-.72-.72a1.205 1.205 0 00-1.702 0l-8.221 8.22-8.23-8.23a1.196 1.196 0 00-.852-.351c-.322 0-.624.125-.85.351L.35 5.61a1.195 1.195 0 00-.35.851c0 .322.125.625.351.851l9.8 9.8c.227.227.53.351.853.35.324.001.627-.123.854-.35z" fill="#EF6F0E"/></g><defs><clipPath id="clip0"><path transform="rotate(90 22 0)" fill="#fff" d="M22 0h22v22H22z"/></clipPath></defs></svg>