<svg width="14" height="14" fill="none" xmlns="http://www.w3.org/2000/svg"><g clip-path="url(#clip0)"><path d="M7.546 10.89l6.23-6.231A.76.76 0 0014 4.117a.76.76 0 00-.224-.541l-.458-.459a.767.767 0 00-1.083 0L7.003 8.349 1.765 3.11a.76.76 0 00-.541-.223.761.761 0 00-.542.223l-.458.459A.76.76 0 000 4.112c0 .205.08.397.224.541l6.235 6.236a.762.762 0 00.544.223.762.762 0 00.543-.223z" fill="#536587"/></g><defs><clipPath id="clip0"><path transform="rotate(90 14 0)" fill="#fff" d="M14 0h14v14H14z"/></clipPath></defs></svg>