<svg width="34" height="34" fill="none" xmlns="http://www.w3.org/2000/svg"><circle cx="17" cy="17" r="16.5" fill="url(#paint0_linear)" stroke="#F87513"/><path d="M21.667 15.915L14.992 9.24a.815.815 0 00-.58-.24.815.815 0 00-.58.24l-.492.491a.82.82 0 000 1.16l5.605 5.606-5.612 5.611a.815.815 0 00-.24.58c0 .22.086.426.24.581l.492.491c.155.155.36.24.58.24.22 0 .426-.085.58-.24l6.682-6.68a.816.816 0 00.24-.583.816.816 0 00-.24-.582z" fill="#fff"/><defs><linearGradient id="paint0_linear" x1="31.5" y1="34.5" x2="-8.5" y2="-13" gradientUnits="userSpaceOnUse"><stop stop-color="#C45400" stop-opacity=".8"/><stop offset="1" stop-color="#C45400" stop-opacity="0"/></linearGradient></defs></svg>