<svg width="22" height="22" fill="none" xmlns="http://www.w3.org/2000/svg"><g clip-path="url(#clip0)"><path d="M8.207 20.025c-.95 0-1.93-.077-2.915-.231-1.735-.272-3.492-1.18-3.989-1.452L0 17.63l1.411-.464c1.543-.508 2.481-.822 3.643-1.315-1.163-.563-2.06-1.577-2.491-2.887l-.328-.996.269.04a4.9 4.9 0 01-.613-.755c-.556-.844-.85-1.876-.788-2.76l.062-.87.52.202a4.869 4.869 0 01-.471-1.322 5.033 5.033 0 01.536-3.388l.454-.833.607.729c1.919 2.305 4.35 3.672 7.234 4.073-.118-.813-.03-1.596.263-2.3.34-.817.945-1.51 1.75-2.005a5.256 5.256 0 013.05-.75 4.866 4.866 0 012.994 1.236c.402-.105.697-.216 1.097-.366.24-.09.513-.193.854-.31l1.257-.434-.82 2.34c.054-.004.11-.008.168-.01L22 4.425l-.793 1.083c-.046.062-.057.08-.073.104-.064.097-.144.217-1.233 1.67a2.051 2.051 0 00-.383 1.336c.096 1.89-.135 3.598-.69 5.08a8.99 8.99 0 01-2.413 3.575c-1.333 1.2-3.032 2.023-5.052 2.443-.99.206-2.054.31-3.155.31z" fill="#536587"/></g><defs><clipPath id="clip0"><path fill="#fff" d="M0 0h22v22H0z"/></clipPath></defs></svg>