<svg width="45" height="45" viewBox="0 0 45 45" fill="none" xmlns="http://www.w3.org/2000/svg">
<path fill-rule="evenodd" clip-rule="evenodd" d="M22.5 45C34.9264 45 45 34.9264 45 22.5C45 10.0736 34.9264 0 22.5 0C10.0736 0 0 10.0736 0 22.5C0 34.9264 10.0736 45 22.5 45ZM25.6935 25.6341L24.1975 27.6361C24.8429 28.1494 25.6202 28.5454 26.5295 28.8241C27.4389 29.0881 28.4142 29.2201 29.4555 29.2201C30.1742 29.2201 30.8415 29.1247 31.4575 28.9341C32.0735 28.7434 32.6015 28.4794 33.0415 28.1421C33.4815 27.8047 33.8262 27.4087 34.0755 26.9541C34.3395 26.4847 34.4715 25.9787 34.4715 25.4361C34.4715 24.5561 34.1635 23.8301 33.5475 23.2581C32.9462 22.6861 32.0882 22.3194 30.9735 22.1581L28.7735 21.8281C28.2162 21.7547 27.8129 21.6374 27.5635 21.4761C27.3289 21.3001 27.2115 21.0581 27.2115 20.7501C27.2115 20.4127 27.3729 20.1414 27.6955 19.9361C28.0329 19.7307 28.4729 19.6281 29.0155 19.6281C29.6022 19.6281 30.1815 19.7234 30.7535 19.9141C31.3255 20.0901 31.9269 20.3614 32.5575 20.7281L34.0095 18.7921C33.2909 18.3227 32.5355 17.9707 31.7435 17.7361C30.9515 17.4867 30.1375 17.3621 29.3015 17.3621C27.8495 17.3621 26.6909 17.6921 25.8255 18.3521C24.9602 19.0121 24.5275 19.8921 24.5275 20.9921C24.5275 21.9161 24.8209 22.6567 25.4075 23.2141C26.0089 23.7714 26.8742 24.1381 28.0035 24.3141L30.2035 24.6441C30.7022 24.7174 31.0615 24.8421 31.2815 25.0181C31.5162 25.1941 31.6335 25.4287 31.6335 25.7221C31.6335 26.0887 31.4282 26.3821 31.0175 26.6021C30.6215 26.8221 30.0862 26.9321 29.4115 26.9321C28.8102 26.9321 28.2089 26.8294 27.6075 26.6241C27.0062 26.4041 26.3682 26.0741 25.6935 25.6341ZM11.2158 17.5381L16.1438 29.0001H19.0478L23.9758 17.5381H20.7638L17.6398 25.1721L14.4938 17.5381H11.2158Z" fill="#0079FF"/>
</svg>
